<svg id="Calque_1" data-name="Calque 1" xmlns="http://www.w3.org/2000/svg" xmlns:xlink="http://www.w3.org/1999/xlink" viewBox="0 0 749.79 389.26"><defs><style>.cls-1,.cls-11,.cls-13,.cls-14,.cls-15,.cls-16,.cls-17,.cls-18,.cls-19,.cls-2,.cls-20,.cls-21,.cls-22,.cls-7,.cls-8,.cls-9{fill:none;}.cls-1,.cls-11,.cls-2,.cls-7{stroke-linecap:square;stroke-linejoin:round;}.cls-1{stroke:url(#Dégradé_sans_nom_168);}.cls-2{stroke:url(#Dégradé_sans_nom_175);}.cls-10,.cls-12,.cls-3,.cls-4,.cls-5,.cls-6{fill:#ccc;}.cls-4,.cls-5,.cls-7{stroke:#ccc;}.cls-13,.cls-14,.cls-15,.cls-16,.cls-17,.cls-18,.cls-19,.cls-20,.cls-21,.cls-22,.cls-4,.cls-5,.cls-8,.cls-9{stroke-miterlimit:10;}.cls-12,.cls-13,.cls-14,.cls-15,.cls-16,.cls-17,.cls-18,.cls-19,.cls-20,.cls-21,.cls-22,.cls-4,.cls-8,.cls-9{fill-rule:evenodd;}.cls-6{font-size:66px;}.cls-10,.cls-6{font-family:ShareTechMono-Regular, Share Tech Mono;}.cls-7{stroke-width:2px;}.cls-8{stroke:url(#Dégradé_sans_nom_170);}.cls-9{stroke:url(#Dégradé_sans_nom_173);}.cls-10{font-size:18px;}.cls-11{stroke:url(#Dégradé_sans_nom_168-2);}.cls-13{stroke:url(#Dégradé_sans_nom_170-2);}.cls-14{stroke:url(#Dégradé_sans_nom_170-3);}.cls-15{stroke:url(#Dégradé_sans_nom_173-2);}.cls-16{stroke:url(#Dégradé_sans_nom_170-4);}.cls-17{stroke:url(#Dégradé_sans_nom_173-3);}.cls-18{stroke:url(#Dégradé_sans_nom_170-5);}.cls-19{stroke:url(#Dégradé_sans_nom_170-6);}.cls-20{stroke:url(#Dégradé_sans_nom_173-4);}.cls-21{stroke:url(#Dégradé_sans_nom_173-5);}.cls-22{stroke:url(#Dégradé_sans_nom_173-6);}</style><linearGradient id="Dégradé_sans_nom_168" x1="305.31" y1="270.1" x2="576.5" y2="270.1" gradientUnits="userSpaceOnUse"><stop offset="0" stop-color="#ccc"/><stop offset="0.46" stop-color="#ccc" stop-opacity="0.51"/><stop offset="0.83" stop-color="#ccc" stop-opacity="0.14"/><stop offset="1" stop-color="#ccc" stop-opacity="0"/></linearGradient><linearGradient id="Dégradé_sans_nom_175" x1="575.47" y1="269.99" x2="846.69" y2="269.99" gradientUnits="userSpaceOnUse"><stop offset="0" stop-color="#ccc" stop-opacity="0"/><stop offset="0.04" stop-color="#ccc" stop-opacity="0.05"/><stop offset="0.52" stop-color="#ccc" stop-opacity="0.56"/><stop offset="0.85" stop-color="#ccc" stop-opacity="0.88"/><stop offset="1" stop-color="#ccc"/></linearGradient><linearGradient id="Dégradé_sans_nom_170" x1="467.5" y1="274.51" x2="576" y2="274.51" gradientUnits="userSpaceOnUse"><stop offset="0" stop-color="#ccc"/><stop offset="0.04" stop-color="#ccc" stop-opacity="0.95"/><stop offset="0.52" stop-color="#ccc" stop-opacity="0.44"/><stop offset="0.85" stop-color="#ccc" stop-opacity="0.12"/><stop offset="1" stop-color="#ccc" stop-opacity="0"/></linearGradient><linearGradient id="Dégradé_sans_nom_173" x1="575.5" y1="273.02" x2="684.5" y2="273.02" xlink:href="#Dégradé_sans_nom_175"/><linearGradient id="Dégradé_sans_nom_168-2" x1="188.3" y1="441.1" x2="306.5" y2="441.1" xlink:href="#Dégradé_sans_nom_168"/><linearGradient id="Dégradé_sans_nom_170-2" x1="440.2" y1="436.51" x2="468.5" y2="436.51" xlink:href="#Dégradé_sans_nom_170"/><linearGradient id="Dégradé_sans_nom_170-3" x1="809.99" y1="436.5" x2="838.29" y2="436.5" xlink:href="#Dégradé_sans_nom_170"/><linearGradient id="Dégradé_sans_nom_173-2" x1="467.5" y1="445.51" x2="513.5" y2="445.51" xlink:href="#Dégradé_sans_nom_175"/><linearGradient id="Dégradé_sans_nom_170-4" x1="647.09" y1="436.04" x2="675.39" y2="436.04" xlink:href="#Dégradé_sans_nom_170"/><linearGradient id="Dégradé_sans_nom_173-3" x1="692.5" y1="445.52" x2="711.37" y2="445.52" xlink:href="#Dégradé_sans_nom_175"/><linearGradient id="Dégradé_sans_nom_170-5" x1="259.99" y1="441.01" x2="306.5" y2="441.01" xlink:href="#Dégradé_sans_nom_170"/><linearGradient id="Dégradé_sans_nom_170-6" x1="287.14" y1="445.75" x2="306.5" y2="445.75" xlink:href="#Dégradé_sans_nom_170"/><linearGradient id="Dégradé_sans_nom_173-4" x1="305.28" y1="450.5" x2="342.28" y2="450.5" xlink:href="#Dégradé_sans_nom_175"/><linearGradient id="Dégradé_sans_nom_173-5" x1="854.5" y1="445.76" x2="891.28" y2="445.76" xlink:href="#Dégradé_sans_nom_175"/><linearGradient id="Dégradé_sans_nom_173-6" x1="845.5" y1="445.49" x2="855.17" y2="445.49" xlink:href="#Dégradé_sans_nom_175"/></defs><path class="cls-1" d="M576,180s0,63-102.86,72S306,360,306,360" transform="translate(-160.17 -123.9)"/><path class="cls-2" d="M576,179.79s0,63.07,102.87,72.08S846,360,846,360" transform="translate(-160.17 -123.9)"/><path class="cls-3" d="M285.06,360.3a2.67,2.67,0,0,0-1.35,1.36c-.16.33-.16,1.47-.16,18.47,0,17.6,0,18.13.18,18.58a2.78,2.78,0,0,0,1.44,1.46l.5.2,15.47.05,15.46,0-.08-.2a2.84,2.84,0,0,1,.12-1.74l.2-.32-.27-.21a2,2,0,0,1-.43-.49l-.17-.27h-29.1V369.53h39.55l.05,9.06,0,9,.37.09a2.94,2.94,0,0,1,1.31,1.08c0,.11.1.11.36,0a2.37,2.37,0,0,1,.73-.12h.41l.05-13.4V361.92l-.35-.52a3.16,3.16,0,0,0-1.59-1.29c-.26-.08-6-.1-21.26-.1h-20.9Zm31.18,3.28c.54.22.64.45.64,1.47,0,.75,0,.93-.19,1.13a1.78,1.78,0,0,1-1.57.42c-.6,0-.72-.08-1-.34s-.3-.31-.3-1.17.11-1.27.57-1.49A3.29,3.29,0,0,1,316.24,363.58Zm5.1.21c.26.25.3.36.35,1,.09,1.27-.27,1.77-1.37,1.83a1.74,1.74,0,0,1-1.51-.42c-.16-.2-.19-.38-.19-1.15s0-.93.24-1.19.46-.38,1.42-.36C321,363.5,321.06,363.52,321.34,363.79Zm4.49-.21c.46.19.63.56.63,1.39,0,1.22-.26,1.55-1.3,1.62-1.37.12-1.8-.26-1.8-1.53,0-.91.16-1.28.61-1.47A3.56,3.56,0,0,1,325.83,363.58Z" transform="translate(-160.17 -123.9)"/><path class="cls-3" d="M308.5,373a1.72,1.72,0,0,0-.59.44c-.28.39-5.16,15-5.16,15.47a1.49,1.49,0,0,0,2.61.79c.25-.35,5.16-15.08,5.16-15.5a1.33,1.33,0,0,0-.8-1.17A1.11,1.11,0,0,0,308.5,373Z" transform="translate(-160.17 -123.9)"/><path class="cls-3" d="M298.64,377.9l-4,1.78a5.14,5.14,0,0,0-1.73,1,1.44,1.44,0,0,0,.26,2c.14.09,2,.94,4.1,1.89,4.21,1.88,4.36,1.93,5,1.51a1.55,1.55,0,0,0,.68-1.13,2,2,0,0,0-.21-.68c-.19-.39-.27-.44-1.67-1.09l-2.5-1.13a5.66,5.66,0,0,1-1-.51s1-.48,2.2-1,2.34-1.05,2.52-1.15a1.59,1.59,0,0,0,.69-1.16,1.72,1.72,0,0,0-.77-1.26C301.56,376.64,301.31,376.7,298.64,377.9Z" transform="translate(-160.17 -123.9)"/><path class="cls-3" d="M311.22,376.88a1.36,1.36,0,0,0-.41,2.29,25.27,25.27,0,0,0,2.61,1.29c1.26.57,2.3,1.05,2.3,1.08s-1.07.52-2.36,1.1a18.13,18.13,0,0,0-2.62,1.3,1.38,1.38,0,0,0,1.06,2.34,28.84,28.84,0,0,0,4.24-1.73c2.14-1,4-1.83,4.11-1.94a1.41,1.41,0,0,0-.11-2.25c-.12-.07-1.92-.9-4-1.83C312.21,376.81,311.67,376.63,311.22,376.88Z" transform="translate(-160.17 -123.9)"/><path class="cls-3" d="M324.16,389.42c-.17.14-.2.29-.22,1l0,.82-.48.17-.64.23c-.11.05-.29-.09-.67-.52-.65-.76-.78-.82-1.19-.54-.74.53-1.42,1.15-1.42,1.33a2.12,2.12,0,0,0,.47.71,7.39,7.39,0,0,1,.53.63,2.29,2.29,0,0,1-.8,1.24l-.78-.12c-.73-.14-.93-.11-1,.1a11.11,11.11,0,0,0-.33,1.86c0,.36.09.41,1.14.58.59.1.7.14.73.31s.09.41.14.67.07.49,0,.53l-.75.42c-.82.47-.84.6-.19,1.65a3.35,3.35,0,0,0,.65.87c.15,0,.43-.07,1.24-.52l.48-.27.53.45.52.46-.28.79c-.22.61-.26.83-.18.95a4,4,0,0,0,1.08.49c.77.26,1,.31,1.16.23a2.68,2.68,0,0,0,.45-.87l.28-.76.72,0,.72,0,.3.8c.25.64.35.8.53.82a8.25,8.25,0,0,0,2-.67c.17-.13.14-.41-.14-1.16l-.26-.67.38-.33c.69-.58.7-.58,1.47-.15a3.38,3.38,0,0,0,.82.38c.2,0,.37-.21.9-1.09s.54-.93-.38-1.47c-.34-.2-.65-.4-.69-.43a2.41,2.41,0,0,1,.06-.71l.11-.67.69-.1c1.29-.19,1.28-.19,1-1.46a5.61,5.61,0,0,0-.25-1.05c-.08-.12-.7-.1-1.6.05-.35.06-.35.06-.69-.53l-.34-.59.51-.61a2.4,2.4,0,0,0,.53-.81c0-.15-.24-.4-.8-.87a4.08,4.08,0,0,0-1-.65,6.54,6.54,0,0,0-1.29,1.29l-.7-.23-.7-.25v-.87c0-1.06,0-1.06-1.28-1.06C324.55,389.26,324.33,389.3,324.16,389.42Zm2.06,5.14a2.29,2.29,0,0,1,1.4,2.09,2,2,0,0,1-.58,1.5,2.41,2.41,0,0,1-3.84-.38,2.34,2.34,0,0,1-.05-2.14,2.68,2.68,0,0,1,1.29-1.11A2.92,2.92,0,0,1,326.22,394.56Z" transform="translate(-160.17 -123.9)"/><path class="cls-3" d="M693.32,390.48H675.54V364.57h18.29v2h2v-2.36c.12-2.33-4.12-4.24-4.12-4.24h-14.5a4.26,4.26,0,0,0-4.24,4.24v30.63a4.26,4.26,0,0,0,4.24,4.24h14.37a4.26,4.26,0,0,0,4.25-4.24v-4.39Zm-8.83,6.29a1.95,1.95,0,1,1,1.94-1.95A1.94,1.94,0,0,1,684.49,396.77Z" transform="translate(-160.17 -123.9)"/><rect class="cls-3" x="517.4" y="243.21" width="5.59" height="3.56"/><rect class="cls-3" x="517.4" y="251.85" width="5.59" height="3.56"/><rect class="cls-3" x="517.4" y="260.48" width="5.59" height="3.56"/><path class="cls-3" d="M702.23,377.27a8.31,8.31,0,0,0-1.13-3l1.95-2.11-2-2.15-1.95,2.11a7,7,0,0,0-2.74-1.22v-2.29h-3v2.77a8.26,8.26,0,0,0-3,1.13l-2.11-1.95-2.15,2,2.11,1.95a7.12,7.12,0,0,0-1.23,2.75h-2.29v3.05h2.76a8.73,8.73,0,0,0,1.13,3l-1.94,2.11,2,2.14,2-2.1a7.14,7.14,0,0,0,2.75,1.23V389h3v-2.76a8.41,8.41,0,0,0,3-1.13l2.1,1.95,2.15-2-2.1-1.95a7.26,7.26,0,0,0,1.22-2.75H705v-3.05ZM695,381.79a3.07,3.07,0,1,1,3.06-3.06A3.06,3.06,0,0,1,695,381.79Z" transform="translate(-160.17 -123.9)"/><path class="cls-4" d="M448.31,360H494a1.32,1.32,0,0,1,1.32,1.31v30.22a1.32,1.32,0,0,1-1.32,1.31H448.31a1.33,1.33,0,0,1-1.31-1.32V361.3A1.31,1.31,0,0,1,448.31,360Zm4.06,9h3.29a.3.3,0,0,1,.3.31h0v1.18a.31.31,0,0,1-.3.3H452s-.3,0-.19-.16v-1.15c-.11-.16,0-.29.59-.29Zm-.3,9.55H464a.29.29,0,0,1,.3.3V380a.29.29,0,0,1-.29.3H452.08a.3.3,0,0,1-.3-.3v-1.2A.29.29,0,0,1,452.07,378.51Zm-.29-4.48a.3.3,0,0,1,.3-.3h7.17a.3.3,0,0,1,.29.31v1.18a.31.31,0,0,1-.29.3h-7.17a.29.29,0,0,1-.3-.3Zm0,10.15a.29.29,0,0,1,.3-.3H468.8a.3.3,0,0,1,.29.31v1.18a.29.29,0,0,1-.29.3H452.08a.29.29,0,0,1-.3-.3Zm13.43,10.45h11.94a6.12,6.12,0,0,0,3.19,5.37H462C463.87,398.66,465.21,397,465.21,394.63Zm28.36-30.45v23.89a1.18,1.18,0,0,1-1.18,1.18H450a1.18,1.18,0,0,1-1.16-1.18V364.78h10.75v1.57a.78.78,0,0,0,.75.81h1.16a6.68,6.68,0,0,0,.53,1.58l-.88.95a.86.86,0,0,0,0,1.14l1.1,1.19a.72.72,0,0,0,1.06,0l.81-.88a5.61,5.61,0,0,0,1.44.69v.52a.78.78,0,0,0,.78.78h1.42a.78.78,0,0,0,.78-.78v-1.11a5.64,5.64,0,0,0,1.43-.55l.86.89a.74.74,0,0,0,1,0l1.07-1.11a.77.77,0,0,0,0-1.06l-.79-.81a6.17,6.17,0,0,0,.63-1.44h2.15a.79.79,0,0,0,.79-.78v-1.86a.8.8,0,0,0-.07-.34Zm-5.09,6.25,1.27,1.22a.86.86,0,0,1,0,1.24l-1,1a6.3,6.3,0,0,1,.65,1.65h1a.87.87,0,0,1,.84.88v1.83a.86.86,0,0,1-.84.87h-1.42a7.18,7.18,0,0,1-.73,1.68l.92,1a.91.91,0,0,1,0,1.23l-1.24,1.28a.82.82,0,0,1-1.19,0l-1-1a6.81,6.81,0,0,1-1.67.65v1a.86.86,0,0,1-.87.84h-1.83a.87.87,0,0,1-.88-.84v-1.41a6.75,6.75,0,0,1-1.67-.74l-1,.94a.86.86,0,0,1-1.2,0l-1.28-1.24a.85.85,0,0,1,0-1.24l1-1a6.86,6.86,0,0,1-.64-1.66h-1a.85.85,0,0,1-.84-.87v-1.85a.86.86,0,0,1,.86-.86h1.39a6.75,6.75,0,0,1,.74-1.67l-.94-1a.85.85,0,0,1,0-1.18l0,0,1.24-1.29a.82.82,0,0,1,1.19,0l1,1a6.34,6.34,0,0,1,1.66-.64v-1a.86.86,0,0,1,.88-.84h1.83a.86.86,0,0,1,.87.84v1.42a7.18,7.18,0,0,1,1.68.73l.95-.92a.92.92,0,0,1,1.24,0Zm-18-5.65a3.19,3.19,0,0,1-2.76,4.1,3.14,3.14,0,0,1-2.58-.94,3.22,3.22,0,0,1-.78-3.16Zm12.13,8.62a3.55,3.55,0,1,1-3.54,3.55h0A3.55,3.55,0,0,1,482.6,373.4Zm9.18-11.46a.79.79,0,1,1-.78.78A.78.78,0,0,1,491.78,361.94Zm-5.28,0a.79.79,0,1,1-.79.78A.78.78,0,0,1,486.5,361.94Zm2.64,0a.79.79,0,1,1-.79.78A.79.79,0,0,1,489.14,361.94Z" transform="translate(-160.17 -123.9)"/><path class="cls-5" d="M853.68,392.87a1.22,1.22,0,0,0-.92,0,1.19,1.19,0,0,0-.38.25h0a1,1,0,0,0-.16.2l-.07.13h-1.91V391.8a3.74,3.74,0,0,1-.91.3l-.16,0V394a.51.51,0,0,0,.16.38.53.53,0,0,0,.38.16h2.46l.06.11a1.19,1.19,0,0,0,.15.18h0a1.07,1.07,0,0,0,.39.26,1.14,1.14,0,0,0,.46.09,1.17,1.17,0,0,0,.45-.09h0a1.2,1.2,0,0,0,.65-.65,1.23,1.23,0,0,0,.1-.46,1.19,1.19,0,0,0-.1-.46,1.2,1.2,0,0,0-.26-.4,1.3,1.3,0,0,0-.39-.25Zm-9-12.25h-2.28l-.32,1.07h-2.3l2.62-7h2.35l2.61,7H845l-.32-1.07Zm-.39-1.61-.75-2.45-.75,2.45Zm3.83-4.28h2.14v7h-2.14v-7Zm-1.89-6.45a3.53,3.53,0,0,0-.92,1,.12.12,0,0,1,0,.05.19.19,0,0,1-.25-.05,3.65,3.65,0,0,0-.91-1,3,3,0,0,0-1.15-.51h0a3.07,3.07,0,0,0-1.17,0,3.53,3.53,0,0,0-1.15.42,3.68,3.68,0,0,0-.93.78,3.24,3.24,0,0,0-.6,1h0l-.06.18c0,.05,0,.12,0,.18a.18.18,0,0,1-.17.14,3.52,3.52,0,0,0-1.22.44,4,4,0,0,0-1.06.93,4.75,4.75,0,0,0-.76,1.32,5,5,0,0,0-.3,1.52v.41a.19.19,0,0,1-.07.16,5.82,5.82,0,0,0-.69.57,5.2,5.2,0,0,0-.55.62,3.8,3.8,0,0,0-.57,1.09,3.64,3.64,0,0,0-.21,1.16,4,4,0,0,0,.15,1.1,4.32,4.32,0,0,0,.48,1.05h0a5,5,0,0,0,.39.55,5.75,5.75,0,0,0,.49.5.16.16,0,0,1,0,.17,4.17,4.17,0,0,0-.08.69,4.05,4.05,0,0,0,0,.7,4.34,4.34,0,0,0,.35,1.18,4.39,4.39,0,0,0,.69,1.06,4.7,4.7,0,0,0,.88.79,4.34,4.34,0,0,0,1,.52l.48.13a3.59,3.59,0,0,0,.46.05.18.18,0,0,1,.18.14,3,3,0,0,0,.44,1,3.4,3.4,0,0,0,.79.86,3.54,3.54,0,0,0,1.33.66,3.19,3.19,0,0,0,1.41,0,3,3,0,0,0,1.21-.56,3.55,3.55,0,0,0,.94-1.07.16.16,0,0,1,.07-.07.18.18,0,0,1,.24.08,3.56,3.56,0,0,0,.8,1,2.8,2.8,0,0,0,1.07.55,3.13,3.13,0,0,0,1.49,0,3.87,3.87,0,0,0,1.48-.66,3.76,3.76,0,0,0,.89-.89,3.18,3.18,0,0,0,.5-1.05.16.16,0,0,1,.14-.14,3.38,3.38,0,0,0,1.32-.55,4.38,4.38,0,0,0,1.09-1.1,4.63,4.63,0,0,0,.66-1.4,5.19,5.19,0,0,0,.18-1.55.17.17,0,0,1,.08-.16,7.07,7.07,0,0,0,.71-.57,4.21,4.21,0,0,0,.56-.64h0a4,4,0,0,0,.56-1,3.69,3.69,0,0,0,.21-1.12,3.56,3.56,0,0,0-.13-1.08,4,4,0,0,0-.42-1h0a4.3,4.3,0,0,0-.43-.62,4.73,4.73,0,0,0-.54-.56.19.19,0,0,1-.06-.18,4.52,4.52,0,0,0,.08-.63,4.42,4.42,0,0,0,0-.63,3.87,3.87,0,0,0-.33-1.22,4.24,4.24,0,0,0-.68-1.1,4.75,4.75,0,0,0-.91-.83,4.2,4.2,0,0,0-1-.53h0a4,4,0,0,0-.57-.14h0a2.55,2.55,0,0,0-.55,0,.18.18,0,0,1-.19-.14,2.29,2.29,0,0,0-.12-.37,3,3,0,0,0-.17-.37,3.74,3.74,0,0,0-.64-.84,4.23,4.23,0,0,0-.89-.63,3.51,3.51,0,0,0-1.07-.33,3,3,0,0,0-1.07,0,3.13,3.13,0,0,0-1.15.52Zm5.28,3.44a.2.2,0,0,1,.17-.13,1.91,1.91,0,0,1,.41,0,2.47,2.47,0,0,1,.43.11,3.39,3.39,0,0,1,.78.4,3.69,3.69,0,0,1,.68.63h0a3.28,3.28,0,0,1,.52.84,3.07,3.07,0,0,1,.25.91,3,3,0,0,1,0,.67,2.94,2.94,0,0,1-.14.64v0a.64.64,0,0,0,.25.73h0a3.49,3.49,0,0,1,.6.54,4,4,0,0,1,.47.64,3.08,3.08,0,0,1,.32.75,2.6,2.6,0,0,1,.09.78,2.76,2.76,0,0,1-.15.79,2.82,2.82,0,0,1-.4.74h0a3.57,3.57,0,0,1-.6.64,4.89,4.89,0,0,1-.78.56h0a.57.57,0,0,0-.26.29.62.62,0,0,0,0,.38v0a4,4,0,0,1-.07,1.4,3.69,3.69,0,0,1-.55,1.26,3.32,3.32,0,0,1-.64.7,2.33,2.33,0,0,1-.77.42h0s-.21-.15-.24-.25a3.24,3.24,0,0,0-2.06-2.13h0a.61.61,0,0,0-.46,0,.54.54,0,0,0-.34.29v0a.59.59,0,0,0,0,.45.62.62,0,0,0,.3.36c.89.45,1.55.8,1.54,1.91a1.88,1.88,0,0,1-.28.95,2.92,2.92,0,0,1-.76.81,2.83,2.83,0,0,1-1,.47,2.11,2.11,0,0,1-1,0,1.86,1.86,0,0,1-1.17-1A4.89,4.89,0,0,1,846,387a.11.11,0,0,1,0-.05.49.49,0,0,0-.41-.45,1,1,0,0,0-.33-.05,1.13,1.13,0,0,0-.32.05c-.24.07-.42.22-.42.45v0a4.62,4.62,0,0,1-.75,1.65,2.09,2.09,0,0,1-1.22.79,2,2,0,0,1-.95,0,2.59,2.59,0,0,1-.91-.45,2.39,2.39,0,0,1-.64-.75,1.88,1.88,0,0,1-.24-.89c0-1.18.71-1.57,1.65-2.06a.58.58,0,0,0,.3-.35.61.61,0,0,0,0-.46.62.62,0,0,0-.36-.3.59.59,0,0,0-.45,0h0a3.48,3.48,0,0,0-2.17,2.21.2.2,0,0,1-.19.14,1.24,1.24,0,0,1-.33,0,1.68,1.68,0,0,1-.32-.09,3.1,3.1,0,0,1-.77-.39,3.79,3.79,0,0,1-.67-.6,3.55,3.55,0,0,1-.52-.8,1.5,1.5,0,0,1-.17-.88h0a1.18,1.18,0,0,1-.11-.71,3,3,0,0,1,.15-.69h0a.68.68,0,0,0,0-.4h0a.73.73,0,0,0-.25-.33h0a3.9,3.9,0,0,1-.56-.5,3.41,3.41,0,0,1-.44-.58,2.86,2.86,0,0,1-.34-.76,2.42,2.42,0,0,1-.11-.8,2.47,2.47,0,0,1,.15-.83,3.26,3.26,0,0,1,.41-.78,3.81,3.81,0,0,1,.59-.63,4.53,4.53,0,0,1,.76-.56.66.66,0,0,0,.24-.26h0a.7.7,0,0,0,.06-.35l0,0v.07a2,2,0,0,1,0-.34c0-.12,0-.24,0-.36a4.05,4.05,0,0,1,.23-1.18,3.44,3.44,0,0,1,.58-1,2.9,2.9,0,0,1,.66-.61,2.47,2.47,0,0,1,.74-.34h0a.19.19,0,0,1,.23.13,3.12,3.12,0,0,0,.93,1.48l0,0a.64.64,0,0,0,.43.16.61.61,0,0,0,.41-.19h0a.6.6,0,0,0,.15-.43.61.61,0,0,0-.19-.43,1.76,1.76,0,0,1-.59-.94,1.82,1.82,0,0,1,0-1.2,2.21,2.21,0,0,1,.41-.69A2.65,2.65,0,0,1,841,369h0a2.53,2.53,0,0,1,.79-.3,1.91,1.91,0,0,1,.79,0,1.94,1.94,0,0,1,1.05.61,3.53,3.53,0,0,1,.72,1.24h0a.66.66,0,0,0,.55.38,1.45,1.45,0,0,0,.36,0h0a1.35,1.35,0,0,0,.35-.06c.19-.07.35-.17.38-.3v-.08a1.7,1.7,0,0,1,.53-1.1,2.44,2.44,0,0,1,1.16-.72,2.18,2.18,0,0,1,.72,0,2.68,2.68,0,0,1,.71.23h0a2.5,2.5,0,0,1,1.07,1,1.86,1.86,0,0,1,.21,1.15,1.53,1.53,0,0,1-.36.95h0a.65.65,0,0,0-.14.44.62.62,0,0,0,.2.4l0,0a.64.64,0,0,0,.44.13.57.57,0,0,0,.39-.2l0,0a2.74,2.74,0,0,0,.55-1.12Zm7.26,15.55a1.09,1.09,0,0,1,0-.91A1,1,0,0,1,859,386h0a1,1,0,0,1,.2-.16l.13-.07v-1.91H857c0-.13,0-.25,0-.38a.21.21,0,0,1,.09-.18,5.76,5.76,0,0,0,.66-.51h2.14a.55.55,0,0,1,.38.15.53.53,0,0,1,.16.38v2.46l.11.07.18.14h0a1.16,1.16,0,0,1,.26.39,1.18,1.18,0,0,1,.09.46,1.13,1.13,0,0,1-.09.45h0a1.16,1.16,0,0,1-.26.39,1.27,1.27,0,0,1-.39.26,1.22,1.22,0,0,1-.46.09,1.23,1.23,0,0,1-.47-.09,1.27,1.27,0,0,1-.39-.26,1.36,1.36,0,0,1-.25-.4Zm3.48-6.12H859a3.84,3.84,0,0,0,.14-.36,3,3,0,0,0,.18-.71h2.87l.06-.12a1,1,0,0,1,.16-.19,1.16,1.16,0,0,1,.39-.26,1.18,1.18,0,0,1,.46-.09,1.33,1.33,0,0,1,.45.08h0a1.2,1.2,0,0,1,.65.65,1.14,1.14,0,0,1,.09.46,1.22,1.22,0,0,1-.09.46,1.27,1.27,0,0,1-.26.39,1.16,1.16,0,0,1-.39.26,1.39,1.39,0,0,1-.46.09,1.13,1.13,0,0,1-.45-.09h0a1.16,1.16,0,0,1-.39-.26.9.9,0,0,1-.15-.19h0l-.06-.12Zm.85-3.21h-4a4.49,4.49,0,0,0-.43-1h0l0-.08h4v-3.49l-.09-.06-.17-.14a1.33,1.33,0,0,1-.26-.39,1.34,1.34,0,0,1-.09-.46,1.39,1.39,0,0,1,.09-.46,1.33,1.33,0,0,1,.26-.39,1.27,1.27,0,0,1,.39-.26,1.22,1.22,0,0,1,.46-.09,1.18,1.18,0,0,1,.46.09,1.2,1.2,0,0,1,.65.65,1.18,1.18,0,0,1,.09.46,1.33,1.33,0,0,1-.08.45h0a1.16,1.16,0,0,1-.26.39,1,1,0,0,1-.22.18l-.15.08v4a.55.55,0,0,1-.54.54Zm-4.28-2.68h-1.36a3.8,3.8,0,0,0,.06-.59,3.84,3.84,0,0,0,0-.48h.77v-1.57l-.12-.07a1.06,1.06,0,0,1-.2-.17h0a1.16,1.16,0,0,1-.26-.39,1.13,1.13,0,0,1-.09-.45,1.18,1.18,0,0,1,.09-.46,1.19,1.19,0,0,1,.25-.38h0a1.07,1.07,0,0,1,.39-.26,1.14,1.14,0,0,1,.46-.09,1.22,1.22,0,0,1,.46.09,1.19,1.19,0,0,1,.38.25h0a1.25,1.25,0,0,1,.25.38h0a1.34,1.34,0,0,1,.09.46,1.45,1.45,0,0,1-.09.46,1.42,1.42,0,0,1-.26.38h0a1.49,1.49,0,0,1-.2.15.41.41,0,0,1-.11.07v2.12a.53.53,0,0,1-.16.38.55.55,0,0,1-.38.15Zm-22.17-10.11a1.14,1.14,0,0,0,.46.09,1.22,1.22,0,0,0,.46-.09,1.05,1.05,0,0,0,.37-.25h0a1.63,1.63,0,0,0,.17-.2l.07-.13h1.9v1.65a3.8,3.8,0,0,1,1.07-.38V364a.55.55,0,0,0-.15-.38.53.53,0,0,0-.38-.16h-2.46l-.07-.11-.14-.18h0a1.56,1.56,0,0,0-.39-.26,1.39,1.39,0,0,0-.46-.09,1.13,1.13,0,0,0-.45.09h0a1.56,1.56,0,0,0-.39.26,1.27,1.27,0,0,0-.26.39,1.22,1.22,0,0,0-.09.46,1.18,1.18,0,0,0,.09.46,1.07,1.07,0,0,0,.26.39,1.31,1.31,0,0,0,.4.26Zm6.12-3.43v4.13a3.42,3.42,0,0,1,1,.51l0,0v-4.66l.12-.06a1,1,0,0,0,.19-.16,1.16,1.16,0,0,0,.26-.39,1.19,1.19,0,0,0,.1-.46,1.34,1.34,0,0,0-.09-.45h0a1.16,1.16,0,0,0-.26-.39,1.07,1.07,0,0,0-.39-.26,1.14,1.14,0,0,0-.46-.09,1.13,1.13,0,0,0-.45.09,1.07,1.07,0,0,0-.39.26,1.16,1.16,0,0,0-.26.39,1.19,1.19,0,0,0-.1.46,1.13,1.13,0,0,0,.09.45h0a1.16,1.16,0,0,0,.26.39,1,1,0,0,0,.19.16h0l.12.06Zm3.21-.9v6a3.28,3.28,0,0,1,.46-.39,2.67,2.67,0,0,1,.61-.35v-4.77h3.49l.06.09a1.18,1.18,0,0,0,.53.43,1.22,1.22,0,0,0,.92,0,1.2,1.2,0,0,0,.65-.65,1.22,1.22,0,0,0,0-.92,1.16,1.16,0,0,0-.26-.39,1.31,1.31,0,0,0-.4-.26,1.13,1.13,0,0,0-.45-.09,1.33,1.33,0,0,0-.45.08h0a1.16,1.16,0,0,0-.39.26,1,1,0,0,0-.18.22,1.09,1.09,0,0,0-.08.15h-4a.51.51,0,0,0-.38.16.53.53,0,0,0-.16.38Zm2.68,4.27v.83l.33,0a3.2,3.2,0,0,1,.74.18v-.51h1.58l.06.12a1.12,1.12,0,0,0,.17.21h0a1.56,1.56,0,0,0,.39.26,1.34,1.34,0,0,0,.45.09,1.39,1.39,0,0,0,.46-.09,1.33,1.33,0,0,0,.39-.26h0a1.27,1.27,0,0,0,.26-.39,1.22,1.22,0,0,0,.09-.46,1.14,1.14,0,0,0-.09-.46,1,1,0,0,0-.25-.38h0a1,1,0,0,0-.38-.26h0a1.14,1.14,0,0,0-.46-.09,1.22,1.22,0,0,0-.46.09,1.19,1.19,0,0,0-.38.25h0a1.57,1.57,0,0,0-.15.19l-.07.11h-2.12a.53.53,0,0,0-.38.16.54.54,0,0,0-.15.37Zm-16.53,5.35a1.52,1.52,0,0,1,.09.49,1.58,1.58,0,0,1-.09.49,1.2,1.2,0,0,1-.26.4h0a1.68,1.68,0,0,1-.21.18l-.13.07v2.11h2.14v.1a1.62,1.62,0,0,0,0,.22.21.21,0,0,1-.09.18,7.92,7.92,0,0,0-.76.57H831a.53.53,0,0,1-.38-.16.6.6,0,0,1-.16-.41v-2.63l-.11-.07a1.19,1.19,0,0,1-.18-.15h0a1.35,1.35,0,0,1-.26-1.39h0a1.19,1.19,0,0,1,.65-.69,1.07,1.07,0,0,1,.47-.1,1.06,1.06,0,0,1,.46.1,1.19,1.19,0,0,1,.39.27,1.7,1.7,0,0,1,.26.43Zm-3.5,7h2.85a3.24,3.24,0,0,0-.13.33,4.7,4.7,0,0,0-.18.74H828.6l-.07.11a1,1,0,0,1-.15.2,1.4,1.4,0,0,1-.39.26,1.23,1.23,0,0,1-.47.09,1.42,1.42,0,0,1-.45-.08h0a1.27,1.27,0,0,1-.39-.26,1.16,1.16,0,0,1-.26-.39,1.22,1.22,0,0,1,0-.92,1.16,1.16,0,0,1,.26-.39,1.27,1.27,0,0,1,.39-.26,1.22,1.22,0,0,1,.46-.09,1.44,1.44,0,0,1,.46.08h0a1.4,1.4,0,0,1,.39.26,1,1,0,0,1,.15.19h0l.06.12Zm-.84,2.67h3.78a4.45,4.45,0,0,0,.5,1.06h-3.75v3.49l.09.06.17.14a1.16,1.16,0,0,1,.26.39,1.22,1.22,0,0,1,0,.92,1.16,1.16,0,0,1-.26.39,1.27,1.27,0,0,1-.39.26,1.22,1.22,0,0,1-.46.09,1.18,1.18,0,0,1-.46-.09,1.16,1.16,0,0,1-.39-.26,1.31,1.31,0,0,1-.26-.4,1.14,1.14,0,0,1-.09-.46,1.42,1.42,0,0,1,.08-.45h0a1.4,1.4,0,0,1,.26-.39,1.28,1.28,0,0,1,.22-.17l.15-.08v-4a.51.51,0,0,1,.16-.37.53.53,0,0,1,.38-.16Zm4.28,3.21h1a4,4,0,0,0,0,.59,2.53,2.53,0,0,0,0,.48h-.42v1.58l.12.07a1.56,1.56,0,0,1,.2.16h0a1.27,1.27,0,0,1,.26.39,1.23,1.23,0,0,1,.1.46,1.15,1.15,0,0,1-.1.46,1,1,0,0,1-.25.38h0a1.07,1.07,0,0,1-.39.26,1.13,1.13,0,0,1-.45.09,1.24,1.24,0,0,1-.85-.34h0a1.12,1.12,0,0,1-.26-.38h0a1.15,1.15,0,0,1-.1-.46,1.23,1.23,0,0,1,.1-.46,1.19,1.19,0,0,1,.25-.38h0a1.57,1.57,0,0,1,.19-.15l.11-.07v-2.12a.53.53,0,0,1,.16-.38.51.51,0,0,1,.38-.16Zm15.52,13.11v-4.24a3.2,3.2,0,0,1-1.07-.58h0v4.83l-.12.07a.78.78,0,0,0-.2.16,1.16,1.16,0,0,0-.26.39,1.14,1.14,0,0,0-.09.46,1.13,1.13,0,0,0,.09.45h0a1.2,1.2,0,0,0,.65.65,1.22,1.22,0,0,0,.92,0,1.07,1.07,0,0,0,.39-.26,1.36,1.36,0,0,0,.27-.39,1.39,1.39,0,0,0,.09-.46,1.13,1.13,0,0,0-.09-.45h0a1.36,1.36,0,0,0-.27-.39,1,1,0,0,0-.19-.16h0l-.11-.07Zm-3.21,1.34v-6.1a3.23,3.23,0,0,1-.4.35,3.91,3.91,0,0,1-.68.4v4.82h-3.49l0-.09c-.05-.06-.09-.12-.14-.17a1.27,1.27,0,0,0-.39-.26,1.22,1.22,0,0,0-.46-.09,1.18,1.18,0,0,0-.46.09,1.2,1.2,0,0,0-.65.65,1.18,1.18,0,0,0-.09.46,1.22,1.22,0,0,0,.09.46,1.2,1.2,0,0,0,.65.65,1.14,1.14,0,0,0,.46.09,1.2,1.2,0,0,0,.45-.09h0a1.4,1.4,0,0,0,.39-.26,2,2,0,0,0,.17-.23.64.64,0,0,0,.08-.14h4a.49.49,0,0,0,.37-.16.56.56,0,0,0,.17-.38Zm-2.68-4.82V392a4.07,4.07,0,0,1-.7-.1,2.29,2.29,0,0,1-.37-.12v.57H839a.75.75,0,0,0-.07-.12,1,1,0,0,0-.16-.2h0a1.16,1.16,0,0,0-.39-.26,1.19,1.19,0,0,0-.46-.1,1.23,1.23,0,0,0-.46.1,1.19,1.19,0,0,0-.38.25h0a1.27,1.27,0,0,0-.26.39,1.22,1.22,0,0,0-.09.46,1.15,1.15,0,0,0,.35.85h0a1.19,1.19,0,0,0,.38.25h0a1.22,1.22,0,0,0,.92,0,1.39,1.39,0,0,0,.38-.25h0a1.08,1.08,0,0,0,.16-.2l.06-.11h2.12a.55.55,0,0,0,.54-.54Z" transform="translate(-160.17 -123.9)"/><text class="cls-6" transform="translate(343.83 56.1)">CODZ</text><path class="cls-7" d="M576,180" transform="translate(-160.17 -123.9)"/><path class="cls-8" d="M575.5,189a86.2,86.2,0,0,1-13.32,40.24c-22,34.64-58,39.85-79.89,70.41-8.65,12.1-17.24,31.2-13.31,60.35" transform="translate(-160.17 -123.9)"/><path class="cls-9" d="M576,186a88.34,88.34,0,0,0,13.38,40.94c22.07,35.25,58.31,40.56,80.26,71.65C678.33,310.9,687,330.34,683,360" transform="translate(-160.17 -123.9)"/><text class="cls-10" transform="translate(132.83 296.1)">Web</text><text class="cls-10" transform="translate(279.67 295.9)">Desktop</text><text class="cls-10" transform="translate(496.67 295.9)">Mobile</text><text class="cls-10" transform="translate(675.67 296.16)">AI</text><path class="cls-11" d="M306,405s0,25.2-44.57,28.8S189,477,189,477" transform="translate(-160.17 -123.9)"/><g id="_5151e0c8492e5103c096af88a51f62ed" data-name="5151e0c8492e5103c096af88a51f62ed"><path class="cls-3" d="M254,477h-6v9a9.77,9.77,0,0,0-2.61-.31c-6.27,0-10.33,3.9-10.33,9.9,0,6.23,3.82,9.48,11.15,9.48a40.59,40.59,0,0,0,7.79-.8V477Zm-6,23.16a14.37,14.37,0,0,1-2,.15c-3,0-4.66-1.72-4.66-4.85s1.72-5,4.7-5a5.84,5.84,0,0,1,2,.31ZM263,477v6h-6v-6Zm-6,9h6v13.65c0,4.7-.35,7-1.4,8.9s-2.26,3.06-4.91,4.36l-5.57-2.6c2.65-1.22,3.93-2.29,4.75-3.94s1.13-3.63,1.13-8.75V486Z" transform="translate(-160.17 -123.9)"/></g><g id="e6c6b53d3c8160b22dad35a0f7103ecc"><path class="cls-12" d="M291.49,484.61c-.14-1.21.95-.7.81,0C292.1,484.84,291.72,484.68,291.49,484.61Zm1.3-.23c.27,0,.53-.06.61-.29-.38-.23-.94.35-.71.62C292.82,484.7,292.7,484.44,292.79,484.38Zm-3.63.75c.23-.11.6-.07.71-.29-.68-.24-1.9-.06-2.1.39C288.29,485.19,288.72,484.78,289.16,485.13Zm-1.52.13a.13.13,0,0,0-.13.22C287.62,485.48,287.64,485.38,287.64,485.26Zm-.36.65c0-.31-.76-.56-.84-.13C286.51,486,287.11,486.17,287.28,485.91Zm-1.26-.3a.5.5,0,0,0-.32.17C285.81,485.84,286.07,485.82,286,485.61Zm-.39.88c.57,0,.75.48,1.23.42C287,486.34,285.79,485.57,285.63,486.49Zm7.71,2.81c-.17-.56.35-1,0-1.48-.44,0-.82,2.08-.2,2.07.46,0,.61-1.25.65-1.65C293.49,488.42,293.64,489.09,293.34,489.3Zm-5.41-.22c0-.09,0-.11-.13-.1S287.88,489.14,287.93,489.08Zm1.59.94c0-.2,0-.39-.16-.42s-.12.1-.2.13A.34.34,0,0,0,289.52,490Zm-1.56,1c.62.07,1,.52,1.62.52a3.15,3.15,0,0,0-1.68-.65C287.87,491,288,491,288,491.05Zm4.89.49a1.34,1.34,0,0,0-.26-.55A.8.8,0,0,0,292.85,491.54Zm-3.56.71a2.87,2.87,0,0,0-1.78-1.13C287.61,492,288.58,492,289.29,492.25Zm-1.1.19a2.18,2.18,0,0,0-1.33-.9C287.19,491.94,287.48,492.54,288.19,492.44ZM286.7,492c.11.19.39.39.32.65-.28-.08-.42-.31-.71-.39.16.21.74,1.16,1.1,1.13s.33-.27.29-.68S287,492.16,286.7,492Zm1.65.84c.07.2.1.45.36.46A.64.64,0,0,0,288.35,492.83Zm-.23.1c-.12,0-.18,0-.19.13s.05,0,.07.06S288.14,493.05,288.12,492.93Zm5.54.74a1.7,1.7,0,0,0,0-.71C293.62,493.14,293.46,493.55,293.66,493.67Zm-2.27-.68c0,.2-.06.5.1.56C291.5,493.4,291.53,493.08,291.39,493Zm1.53.66c-.1-.09-.23,0-.3,0-.06-.22,0-.53-.22-.62h-.07c-.26.55-.24,1.74.23,2,.09.15.1.38.32.39a1,1,0,0,0,.26-.75C292.74,494.6,293.11,493.9,292.92,493.65Zm1,.45c0-.29.28-.71.09-1A2.28,2.28,0,0,0,293.89,494.1Zm-5.7.25a.51.51,0,0,0-.1-.48C288,494,288,494.34,288.19,494.35Zm.58.13c.13.09.14.29.33.33C289.32,494.52,288.89,494,288.77,494.48Zm5.54.65c0,.1-.13.24,0,.32C294.29,495.37,294.39,495.21,294.31,495.13Zm.29,1.26c0-.15,0-.32-.07-.38C294.52,496.12,294.43,496.38,294.6,496.39Zm-4.11,1.33c0,.12,0,.24.16.26S290.67,497.67,290.49,497.72Zm1.45.16c.05.09.18.26.26.2S292,497.81,291.94,497.88Zm3.08.36a1.22,1.22,0,0,0,.29,1C295.38,498.83,295.37,498.3,295,498.24Zm.81,2.49c.05-.1.07-.4,0-.45C295.71,500.4,295.64,500.68,295.83,500.73Zm1.46,1.56c-.05-.24-.24-.5-.43-.49C296.93,502,296.94,502.33,297.29,502.29Zm.29.45c0,.15,0,.32.06.39A.64.64,0,0,0,297.58,502.74Zm-10.69,0a.33.33,0,0,0,.13.23C287,502.89,287,502.79,286.89,502.77Zm11.85,1.78a1.72,1.72,0,0,0-.81-1.26A1.52,1.52,0,0,0,298.74,504.55Zm5.21,3.21s-.15-.08-.16,0S303.93,507.87,304,507.76ZM320,510.15v.36a2,2,0,0,0-.1.39c-.89.57-2.56.36-3.3,1.1-1.29-.71-2.49.4-3.85.51-.22,0-.47,0-.71,0-.8.07-1.58.26-2.4.33s-1.68.12-2.55.16H306c-3.94-.21-7.84-.75-10.74-2.06a19.79,19.79,0,0,1-4-2.43,17.07,17.07,0,0,1-3.31-3.14,46.22,46.22,0,0,1-2.66-3.82,33.44,33.44,0,0,1-2.18-4.27,28.73,28.73,0,0,1-1.54-4.92,21.05,21.05,0,0,0-1.09-3.76,3.55,3.55,0,0,1-.45-1.23v-.29a3.09,3.09,0,0,1,2.44-2.52,4.34,4.34,0,0,0,.9-.36s.2,0,.12-.13c-.54-.13-1,.68-1.6.45s-.23-1,.35-1.29c.27-.12.81-.15,1.06-.29a1.19,1.19,0,0,0,.55-1.23c-.05-.28-.34-.43-.32-.65s.57-.58.83-.78.7-.53.67-.9-.48-.52-.7-.81a.92.92,0,0,1,.16-1.43c.58-.28,1.67-.13,1.8.62s-.36.9-.17,1.39c.36.9,3.17-.53,2.47,1.36.62,1,3,.14,3.08,1.68,1,0,1.47.79,2.28,1.1.22.09.48.09.71.17,1.37.46,3.06,1,3.62,2.29a2,2,0,0,1-1.79-.09c-.52-.19-1.28-.55-1.8-.33s-.49,1.12-.42,2c.19,2.38.31,4.83.64,7a15.91,15.91,0,0,0,2.89,7.22,20.34,20.34,0,0,0,5.07,5,19.26,19.26,0,0,0,6.25,2.55,4.16,4.16,0,0,0,1,.23c.3-.06,1-.95,1.19-1.17.55-.51,1.29-1.24,2.08-.61-.11.86-.87,1.06-1.06,1.84.48.31,1,0,1.58.07s1.21.44,1.79.35c.37-.05.56-.33.84-.51C317.17,510.22,319.63,509,320,510.15Zm-6.66-2.39c0-.11,0-.28-.06-.3S313.09,507.81,313.34,507.76ZM297,485a6.3,6.3,0,0,1,.87.64c.17-.49-.31-.8-.87-.77Zm8.77,23.85c.12,0,.21.05.22-.09S305.8,508.75,305.77,508.82ZM301.3,506c0,.15.3.15.36.12A.25.25,0,0,0,301.3,506Zm-.78-.62c.06.05.19,0,.29,0a.5.5,0,0,0-.06-.26C300.58,505.11,300.53,505.22,300.52,505.36Zm-6.21-13.24c-.09-.07-.15.06-.2,0a5.53,5.53,0,0,0-.06-2.72c-.09-.07-.22,0-.26,0a5.59,5.59,0,0,0,.29-2.33,1.43,1.43,0,0,0-.29-.75c-.35-.23-.67.13-.91.2a3.75,3.75,0,0,1-.48,0,5.88,5.88,0,0,0-1.78.49c.22.15.55.2.64.48a8,8,0,0,1-1.48-.32c.05.73-.85.5-1.4.55.19,0,.22.09.23.22,0,.43-1.39.94-1.88.62-.69.56.31,1.13.26,1.85-.13.1-.2.27-.32.38-.69,0-1.42.16-1.3.88a.36.36,0,0,0-.35,0,.78.78,0,0,0,.52,1c.1,0,.12-.13.25-.13.9.17,1.22.77,1.17,1.91,0,.2,0,.45-.13.58-.51,0-1-1.29-.16-1.32-.2-.29-.35-.73-.71-.72s-.61.68-.91.91c.43.24,1.44.9.61,1.33a1.1,1.1,0,0,1,.81.45c.29.38.28.95.49,1.26.43.63.65-.56,1.16-.06.13,0-.05-.12-.06-.13-.44-.47-1.1-.86-1.36-1.42a1.2,1.2,0,0,1,.65,0c.07-.38-.19-.81-.1-1.1s.19-.12.32-.2,0-.21.17-.16c0,.45-.27,1.19,0,1.52.44.08.56-.67.94-.68.21,0,.4.37.55.55s.41.5.35.75c-.11.52-1,.12-1.29-.1.18.73,1.31.84,1.36,1.78a2.1,2.1,0,0,0,0,.36.65.65,0,0,0,1,.55c.07.18.08.41.26.48.16-.13.1-.48.19-.68a1.28,1.28,0,0,1,1,.84c.09.23.06.64.42.65.05-.55-.38-.89-.45-1.42.29.47,1.33,1,1.29,1.71,0,.49-.61.55-1.16.62.53.18.75.77,1.32,1,.16.05.36,0,.52.06.42.15,1.09,1,.91,1.56-.9.45-1.6-.77-2.59-.75a3.85,3.85,0,0,0,1.68,1l1.85.85a9.34,9.34,0,0,1,3.33,2.62c-.64.35-2.6-.23-1.42-.65-.41,0-.84-.27-1.2-.13.19,1.24,1.81,1,3,1.23-.11.21-.27.38-.39.58a.67.67,0,0,0,.39.07c-.08.12-.28.13-.29.32.16.21.47.27.68.42.83-.59.92.76,1.46.78s.59-.7,1.1-.78c-.13.27-.38.41-.49.68.49-.12.63-.38,1-.48,1.44-.37,2.63.84,3.82,1,.42.05.85.29,1.23.35a1.7,1.7,0,0,0,1.16-.25c-.57-.54-1.89-.33-2.36-1a.37.37,0,0,1,.16-.22,3,3,0,0,1-3.11-1.43c-1.87-.48-3.51-1.19-4.3-2.75,0-.14.14-.07.1-.22a17.37,17.37,0,0,1-1.85-2.33,6.57,6.57,0,0,0-.52-.91c-.13-.15-.35-.24-.48-.39s-.17-.38-.39-.45c-.09.13,0,.4-.1.55-.15-.63-.5-1.22-1.16-1.23,0-.46.35-.53.55-.78a3.13,3.13,0,0,1-.46-1.16c-.32-1.14-.59-2.32-.87-3.37-.37.14-.47.55-.65.87a1.73,1.73,0,0,1,.29-1.16c.12,0,.13.13.2.19.06-.22.27-.43.16-.71s-.33-.07-.39-.07A2.34,2.34,0,0,0,294.31,492.12Zm13,19.2a1.11,1.11,0,0,0,.65-.55C307.66,510.84,307.23,511,307.32,511.32Zm0-.65a1.32,1.32,0,0,0-.51.36C307.1,511,307.42,510.77,307.35,510.67Zm-1,.48c.18,0,.38-.23.36-.38C306.49,510.79,306.16,510.94,306.35,511.15Zm.13-.74a.43.43,0,0,0-.55.42A.82.82,0,0,0,306.48,510.41Zm-.91.07a.66.66,0,0,0-.58.42C305.34,511,305.52,510.73,305.57,510.48Zm-.45.84c.08,0,.16,0,.16-.07S305.1,511.2,305.12,511.32Zm.52-1.4c-.46,0-1,.26-.71.65A1.17,1.17,0,0,0,305.64,509.92Zm-2.24.62c.29,0,.36-.28.55-.23s.05.33.23.33a.7.7,0,0,0,.32-1.07C303.93,509.67,303.41,510,303.4,510.54Zm.13-.84a1.06,1.06,0,0,0-.45.32C303.29,510,303.61,509.78,303.53,509.7Zm-.9.16c0,.09-.14.16,0,.23S302.79,509.89,302.63,509.86Zm-.59,1s0,.06,0,.13h.13C302.15,510.92,302.13,510.86,302,510.87Zm-.48-.39c-.16,0-.23.11-.23.29C301.47,510.73,301.6,510.69,301.56,510.48Zm-3.27-1.66c-.2,0-.26,0,0,.07a1.84,1.84,0,0,0,.74,0C298.83,508.89,298.39,508.83,298.29,508.82Zm1-.51c-.17-.13-.51,0-.68,0C298.68,508.61,299.16,508.49,299.26,508.31Zm-1,2.42a5.37,5.37,0,0,0,3.08.75A12.08,12.08,0,0,0,298.22,510.73Zm-1.19-.35c.07.1.26.1.39.16C297.65,510.31,297.13,510.18,297,510.38Zm-3-2.62c-.21,0-.45,0-.51.19C293.67,508,294,508,294,507.76Zm-.61.84c.07.07.21.15.26,0S293.4,508.53,293.37,508.6Zm.39-2.75c0-.14-.23-.19-.26-.07A.38.38,0,0,0,293.76,505.85Zm.42,1.1a.15.15,0,0,1,0-.1.47.47,0,0,0-.45-.07C293.78,506.94,294,507,294.18,507Zm0,2.07a.17.17,0,0,0,.19,0c0-.1,0-.13-.09-.16A.62.62,0,0,0,294.21,509Zm1-4.15c-.1-.3-.45-.22-.68-.32s-.68-.54-1.16-.55h-.07A2,2,0,0,0,295.21,504.87Zm-1.68-.77a2.61,2.61,0,0,0-1.07-.46C292.6,504,293.14,504.11,293.53,504.1Zm1,1.52a1.19,1.19,0,0,0,1,.39A1.23,1.23,0,0,0,294.53,505.62Zm1.23,1.46c-.33-.23-.85-.61-1.29-.52A1.49,1.49,0,0,0,295.76,507.08Zm-1.23,1.23s0,.05-.06.09S294.67,508.33,294.53,508.31Zm.75,1c0,.12.15.15.26.19s.13-.11.09-.26S295.27,509.14,295.28,509.28Zm.61-1.43c-.1-.06-.46-.13-.55,0C295.5,507.92,295.81,508.08,295.89,507.85Zm.1-1.1c0-.24-.24-.24-.36-.16S295.86,506.71,296,506.75Zm.36-1.75c-.15-.22-.56-.18-.84-.25a1.32,1.32,0,0,0-1.17-.3A3,3,0,0,0,296.35,505Zm-.07,3.11a1.82,1.82,0,0,0,.55.23c0-.08.05-.12,0-.23S296.36,508,296.28,508.11Zm-2.75-5.24c0-.15-.06-.18-.19-.16S293.45,502.83,293.53,502.87Zm.78.39c-.1,0-.07-.18-.2-.17S294.21,503.37,294.31,503.26Zm-2.24.22c-.1-.23-.35-.34-.51-.52.31-.45-.39-.64-.52-1,0-.09.07-.12.1-.19a1.83,1.83,0,0,1-.75-.55c.13-.09.46,0,.58-.07-.19-.08-.4-.15-.48-.35.11-.27.57-.18.68-.45a6.24,6.24,0,0,0-1.72-.39c0,.23.21.26.29.42a1.25,1.25,0,0,0-.58-.2c0,.16.08.2.07.36-.18,0-.27-.06-.46,0,.14.3.48.38.58.71-.13,0-.31-.05-.35,0a4.62,4.62,0,0,1,1,.91c-.31-.06-.5-.26-.8-.33.25.51.88.62,1.35.88A5,5,0,0,0,292.07,503.48Zm-.71.39c.14.08.41.31.58.13C291.79,503.93,291.56,503.78,291.36,503.87Zm-.26-.16a.68.68,0,0,0-.68-.13C290.63,503.64,290.83,503.8,291.1,503.71Zm-.58.1s0,.06,0,.13.19,0,.19,0S290.61,503.8,290.52,503.81Zm-.42-4.31a2,2,0,0,0-.45-.87c-.14-.13-.27-.13-.36-.29-.25-.44-.13-1.07-.45-1.53-.08,0-.23-.06-.29,0,0,.22.49.72.16,1-.75,0-1-.57-1.75-.46-.16.42.41.64.26.94A23.72,23.72,0,0,0,290.1,499.5Zm-2.33,1c.19.15.46.38.71.36C288.29,500.69,288.11,500.36,287.77,500.47Zm-.36-.29a.59.59,0,0,0-.55-.48C286.93,500,287.23,500,287.41,500.18Zm-.55.84c.18.12.35.41.52.42C287.25,501.28,287.1,501,286.86,501Zm.23-2.23a.75.75,0,0,0,.06-.13.2.2,0,0,0-.32.06C286.89,498.77,287,498.76,287.09,498.79Zm5,1.29a.36.36,0,0,0-.55-.29C291.63,500,291.86,500.05,292.11,500.08Zm-3.05-4.24s-.2,0-.19,0S289.06,496,289.06,495.84Zm-1.26.16h-.13s0,.14,0,.23.18.11.23,0S287.88,496,287.8,496Zm-2.43-.32a.35.35,0,0,0,.62,0A1.08,1.08,0,0,0,285.37,495.68Zm.1-.9a.65.65,0,0,0-.32,0C285.17,495,285.47,494.92,285.47,494.78Zm.29-5.22c-.16.08-.51-.07-.68,0,.15.59,1.24.27,1.17-.19s-1.1-.3-1.46-.26C285.07,489.31,285.5,489.35,285.76,489.56Zm-1.29.62c.06.09.23.07.32.13s.08-.09.07-.2S284.47,490,284.47,490.18Zm1.65-.13c0,.07-.08.21,0,.23A.14.14,0,0,0,286.12,490.05Zm.9-1.94c0-.1.08-.1.07-.2s-.23,0-.23.13S286.94,488.11,287,488.11Zm0-7.19c-.13.79.58,1.75,1.43,1.46,0-.3-.1-.42-.1-.68.21-.05.34.15.45.09C288.46,481.22,287.62,481.18,287,480.92Zm-.35-.74c.28.05.73,0,.84-.2C287.26,479.84,286.62,479.8,286.64,480.18Zm-.78-2.27a.69.69,0,0,0-1.17-.55c-.28.27-.41.91,0,1.13-.05-.16-.2-.23-.17-.48C284.9,477.81,285.52,478.1,285.86,477.91Zm-.23,2.07c.08-.05.21-.05.2-.19S285.56,479.9,285.63,480Zm-.68,2.4c.41,0,.71-.22,1.1-.23s.67.09,1.07.07C286.83,481.37,285.43,482.11,285,482.38Zm-.61,1.49a11.12,11.12,0,0,1,2.85-.49,2,2,0,0,1,.93.42c-.11-.12-.24-.6,0-.68.54.1.55,1.11,1.2,1,.33-.07.43-.71.26-1.1.25.18.38.47.71.55-.07-.31-.3-.47-.45-.71a.51.51,0,0,0,.19-.45,9.19,9.19,0,0,0-2.62.58c-.68.13-1.18.27-1.78.42A3.24,3.24,0,0,0,284.34,483.87Zm-2.72,6.7c-.05,0-.06.19,0,.19S281.74,490.54,281.62,490.57Zm1.13-3.85c-1.42.22.09,1.73.94,1.35.11-.16.07-.31.06-.55.5.05.87-.19,1.3-.09.07.15-.06.28-.1.42,1.47-.1,2.2-1.25,3.79-1.43.2,0,.42,0,.65,0a17.35,17.35,0,0,0,2.1-.29c.68-.12,1.3-.37,1.88-.52s1.83-.65,1.68-1.61a.91.91,0,0,0-.16-.33c-3.86-.37-6.74,1.14-9.78,1.75-.36.07-.8,0-1.1.32.11.26.48.26.65.46-.08.1-.29.07-.32.22s.47.22.52.52c-.65.46-2-.12-1.69-1-1,.21-2.39.42-2.39,1.52a1.55,1.55,0,0,0,.61,1.19C281.17,487.61,281.55,486.1,282.75,486.72Zm1.2,6c0-.22-.33-.37-.45-.23A2.12,2.12,0,0,0,284,492.77Zm-1.13.42c.23.8.3,1.75.9,2.17A3.66,3.66,0,0,0,282.82,493.19Zm1.36-.84c.1-.46-.57-.64-.62-.33S284,492.26,284.18,492.35Zm.13-.88a.91.91,0,0,0-.78-.19C283.62,491.51,284.19,491.85,284.31,491.47Zm-.39-1.42c.14-.09.3-.17.32-.39-.19-.14-.64-.16-.68.07S283.76,490,283.92,490.05Zm.42.55a1,1,0,0,0,0-.26.22.22,0,0,0-.26.23A.83.83,0,0,0,284.34,490.6Zm-2.27-.16c0-.09,0-.19-.1-.23S281.89,490.45,282.07,490.44Zm.33-2.2a.37.37,0,0,0-.43.13,1.05,1.05,0,0,0,.26.13C282.27,488.39,282.41,488.39,282.4,488.24Zm.35,4.17c-.08-.18-.09-.44-.26-.55C282.05,491.93,282.49,492.56,282.75,492.41Zm.62,3.5a3.57,3.57,0,0,0,1.32,1.94,10.39,10.39,0,0,1-1-2.17c-.12-.23-.31-.41-.42-.65-.26-.55-.38-1.19-.9-1.45A16.16,16.16,0,0,0,283.37,495.91Zm8.9,12.14a1.65,1.65,0,0,0-1.46-1.14c-.18-.43-.7-.52-.81-1,0-.11.2-.14.13-.2-1,.19-1-.85-1.49-1.29-1.18,0-1-1.44-1.62-2.2-.18-.22-.37-.27-.58-.49-.32-1-1.17-1.51-1.65-2.39s-.52-1.67-1.23-2.24a19,19,0,0,0,2.85,5.12,26.37,26.37,0,0,0,2.43,3.53,11.26,11.26,0,0,0,1.1.9C290.61,507.18,291.08,508.2,292.27,508.05Zm-.13-2.2a.34.34,0,0,0-.42-.17A1.6,1.6,0,0,0,292.14,505.85Zm1.2-.85a3,3,0,0,0-1.1-.51,2.24,2.24,0,0,0-1.65-.17c0,.32.29.43.45.62.45.07.71.29,1.13.32S293.14,505.28,293.34,505Zm15.44,7.38c-1-.44-2.42.06-3.47-.19a3.27,3.27,0,0,0-.55-.19,5.25,5.25,0,0,0-.55.09,10.78,10.78,0,0,1-2.55-.13,13.38,13.38,0,0,1-1.75-.26,16.58,16.58,0,0,1-1.56-.64c-.53-.21-1.08-.41-1.58-.62a29.79,29.79,0,0,0-3.11-1.39c.71.75,1.92,1,2.75,1.62a25.07,25.07,0,0,1-3.11-1.39,11.2,11.2,0,0,0,3.11,1.65,15.92,15.92,0,0,0,3.72,1.07C302.8,512.39,305.92,513,308.78,512.38Zm.84-.09c-.17,0-.37,0-.39.13C309.37,512.54,309.61,512.53,309.62,512.29Zm1.75-3.82c0,.24.39.17.35-.1A.52.52,0,0,0,311.37,508.47Zm2.68,1.68c-.87,0-1.94-.32-2.85-.29-.34,0-.76.09-.87.45a2.09,2.09,0,0,0,.87,0C312.25,510.31,313.54,510.78,314.05,510.15Zm.88-.06c-.15,0-.2.1-.23.22s.14,0,.23,0C314.91,510.2,315,510.18,314.93,510.09Zm1.91-.13c-.16,0-.22.17-.16.26s.12-.05.19-.07S316.81,510.06,316.84,510Zm2.68.19a8,8,0,0,0-2,.07C317.84,510.55,319.11,510.34,319.52,510.15Zm-31.14-19.68c.32.18.62.55,1,.52-.11-.16-.28-.27-.39-.42.12,0,.22,0,.26-.13a3.89,3.89,0,0,1-1.1-1A1.24,1.24,0,0,1,288.38,490.47Zm4.15.26c-.07-.07,0-.24-.13-.29C292.38,490.58,292.47,490.78,292.53,490.73Zm-3,2.82c.05.53.39.77.42,1.32a6.27,6.27,0,0,1-.84-1.58,3.51,3.51,0,0,0,.35,1.55c.14.36.27.77.62.87.16,0,.15-.23.32-.26s.28.31.39.3a.87.87,0,0,1-.13-.42c0-.12.2-.1.26-.2A3.81,3.81,0,0,0,289.55,493.55Z" transform="translate(-160.17 -123.9)"/></g><path class="cls-3" d="M178.57,490h-2.5l-1.36,7h2.22a5.37,5.37,0,0,0,3.28-.83,4.47,4.47,0,0,0,1.46-2.77,3,3,0,0,0-.33-2.63A3.68,3.68,0,0,0,178.57,490Zm13.1-12c-17.4,0-31.5,7.42-31.5,16.57s14.1,16.57,31.5,16.57,31.5-7.42,31.5-16.57S209.06,478,191.67,478Zm-8.46,20a6.86,6.86,0,0,1-2.56,1.54,12,12,0,0,1-3.6.46h-2.86l-.78,4h-3.69l3.3-17h6.81c2.23,0,3.86.58,4.88,1.76s1.34,2.8.93,4.9a7.79,7.79,0,0,1-2.43,4.34Zm10.44,2,1.49-7.73a2.08,2.08,0,0,0-.18-1.79,2.67,2.67,0,0,0-1.9-.48H190.3l-2,10h-3.58l3.31-17h3.51l-.78,4h3c2.14,0,3.62.37,4.43,1.12s1.06,2,.74,3.64l-1.6,8.24Zm20.22-6.34A7.73,7.73,0,0,1,213,496a8.3,8.3,0,0,1-1.57,2,7,7,0,0,1-2.57,1.54,12,12,0,0,1-3.6.46h-2.86l-.78,4H198l3.3-17h6.81c2.23,0,3.86.58,4.88,1.76s1.34,2.8.93,4.9ZM206.8,490h-2.49L203,497h2.21a5.38,5.38,0,0,0,3.29-.83,4.41,4.41,0,0,0,1.45-2.77,3,3,0,0,0-.33-2.63,3.68,3.68,0,0,0-2.77-.77Z" transform="translate(-160.17 -123.9)"/><path class="cls-3" d="M463.67,477H429.24L423,483.28v27.05h38.76l6.24-6.27V477ZM447,505.57,444,506.94l-2.53-4.16a6.46,6.46,0,0,1-1.73.17q-4.44,0-6.2-2.39c-1.16-1.6-1.75-4.13-1.75-7.57s.6-6,1.78-7.68,3.24-2.51,6.17-2.51,5,.82,6.15,2.49,1.76,4.22,1.76,7.69a17.42,17.42,0,0,1-.72,5.52,6.12,6.12,0,0,1-2.38,3.22Zm8.88-3c-1.61,0-2.71-.37-3.31-1.11s-.37-4.19-.37-4.19v-7h-2.5v-2.5h1.66v-4.16h3.34v4.16h4.16v2.5h-4.16V497a7.56,7.56,0,0,0,.31,2.3c.17.38.61.57,1.3.57l2.33-.1.14,2.49A16.92,16.92,0,0,1,455.85,502.6Zm-16.18-17a3.86,3.86,0,0,0-3.68,1.76,12.09,12.09,0,0,0-1,5.65,11.78,11.78,0,0,0,1,5.54c.65,1.1,1.89,1.67,3.72,1.67s3.05-.56,3.69-1.64.95-2.95.95-5.54a12.25,12.25,0,0,0-1-5.68c-.66-1.18-1.88-1.76-3.66-1.76Z" transform="translate(-160.17 -123.9)"/><path class="cls-3" d="M496.76,503.9h0a.52.52,0,0,0-.52.53.57.57,0,0,0,0,.18h0c1.74,4.88,4.6,7.88,7.81,7.88a7.68,7.68,0,0,0,6.18-4.36l0-.05a.5.5,0,0,0,.07-.27.52.52,0,0,0-.52-.52.54.54,0,0,0-.45.25h0a6.7,6.7,0,0,1-5.27,3.9h0c-2.67,0-5.21-2.68-6.83-7.18a.53.53,0,0,0-.46-.35Zm22.77-2h0a1.46,1.46,0,1,1-.95,2.56h0v0a.57.57,0,0,0-.16-.15h0a1.43,1.43,0,0,1-.34-.93,1.47,1.47,0,0,1,1.46-1.46Zm-31,.23h0a1.46,1.46,0,1,1-1.46,1.45,1.43,1.43,0,0,1,.2-.73h0a1.44,1.44,0,0,1,1.26-.73Zm3.35-7.23h0c-.29.7-.52.93-.52,1.22a.54.54,0,0,0,.13.35h0a32.7,32.7,0,0,0,7.64,6.07l.16.09c7.18,4.14,14.8,5.34,18.8,3a2.48,2.48,0,1,0-.72-.79h0c-3.65,2-10.78.81-17.56-3.1a32.31,32.31,0,0,1-7.53-5.93v0c-.09-.1-.22-.17-.36.13h0Zm12.15-2a1.82,1.82,0,1,0,1.82,1.85,1.53,1.53,0,0,0,0-.43h0a1.82,1.82,0,0,0-1.77-1.43Zm4.68-10.45a2.68,2.68,0,0,1-.11-.55h.23a33.12,33.12,0,0,0-9.66,3.86l.15-.09c-7.58,4.38-12.6,10.78-12.21,15.55a2.58,2.58,0,0,0-1.08,3.34,2.27,2.27,0,0,0,1.14,1.18,2.59,2.59,0,0,0,3.31-3.76,2.3,2.3,0,0,0-2-1.08h-.34c-.17-4.24,4.55-10.18,11.69-14.31a31.8,31.8,0,0,1,9-3.6l.22,0a.54.54,0,0,0,.42-.52.54.54,0,0,0-.53-.54h-.2Zm4.38-.59a.52.52,0,0,0,0,1h0c.22,0,.47,0,.72,0a6.73,6.73,0,0,1,5.37,2.67v0c1.33,2.3.29,5.84-2.8,9.49a.56.56,0,0,0-.12.34.52.52,0,0,0,.92.34h0c3.34-3.94,4.51-7.91,2.91-10.69a7.71,7.71,0,0,0-6.25-3.2,6.79,6.79,0,0,0-.78,0h0ZM495,482a4.72,4.72,0,0,0-.75-.05,7.76,7.76,0,0,0-6.28,3.2v0a7.59,7.59,0,0,0-.68,3.17,7.77,7.77,0,0,0,1.52,4.62v0a.53.53,0,0,0,.45.25.52.52,0,0,0,.52-.52.43.43,0,0,0-.07-.25h0a6.71,6.71,0,0,1-1.37-4.09,6.83,6.83,0,0,1,.55-2.68l0,0c1.34-2.31,4.93-3.18,9.65-2.32h.1a.52.52,0,0,0,.52-.52c0-.26-.18-.47-.43-.91h0c-1.09.18-2.33.06-3.6,1H495Zm9-7h0a1.46,1.46,0,1,1-1.45,1.46,1.44,1.44,0,0,1,.2-.74h0a1.47,1.47,0,0,1,1.26-.73Zm.89-1.05h0a2.35,2.35,0,0,0-2.18,1.42,2.52,2.52,0,0,0,2.18,3.59,2.38,2.38,0,0,0,2.12-1.34h0c3.45,2.06,6,8.89,6,16.84v.24A33.21,33.21,0,0,1,511.7,504l.06-.23a.77.77,0,0,0,0,.15.51.51,0,0,0,.5.52.48.48,0,0,0,.47-.35h0a33.19,33.19,0,0,0,1.33-9.45v-.25h0c0-8.44-2.75-15.75-6.71-17.89v-.11a2.45,2.45,0,0,0-2.39-2.5Z" transform="translate(-160.17 -123.9)"/><path class="cls-3" d="M647.62,502.5c.77,0,1.55.06,2.34.06s1.6,0,2.37-.06a33.94,33.94,0,0,1-2.35,2.74h0a34.67,34.67,0,0,1-2.31-2.66Zm-7.94-.85a37.45,37.45,0,0,0,5.23.91l.18,0a41.43,41.43,0,0,0,3.56,4.28l0,0a12.56,12.56,0,0,1-7.08,4h-.09a2.07,2.07,0,0,1-1-.24h0c-1.16-.67-1.66-3.2-1.27-6.45.09-.81.25-1.65.43-2.51Zm20.36,0a23.5,23.5,0,0,1,.43,2.36v.12c.4,3.26-.09,5.79-1.24,6.46a1.79,1.79,0,0,1-.89.23h-.1a12.75,12.75,0,0,1-7.15-4h0a40.39,40.39,0,0,0,3.44-4.14l.08-.12a38.14,38.14,0,0,0,5.7-1l-.27.06Zm-18.73-5.51c.34.69.71,1.37,1.11,2s.81,1.34,1.23,2c-1.21-.18-2.38-.4-3.5-.67.32-1.1.71-2.24,1.15-3.37Zm17.32,0c.46,1.14.85,2.28,1.18,3.39-1.12.27-2.29.51-3.51.68.42-.65.83-1.33,1.23-2s.75-1.37,1.1-2.05Zm-20.34-7.75a39,39,0,0,0,2,5.45l-.11-.26a38.5,38.5,0,0,0-1.82,4.88l-.07.29a24.48,24.48,0,0,1-2.55-.93l.16.06c-3-1.29-5-3-5-4.31s1.95-3,5-4.32c.74-.31,1.54-.59,2.37-.86Zm23.3.28c.84.26,1.64.56,2.39.87,3,1.29,5,3,5,4.31s-2,3-5,4.32c-.73.31-1.53.59-2.36.85a40.76,40.76,0,0,0-2-5.45l.11.26a37.8,37.8,0,0,0,1.81-4.87l.08-.29Zm-5.3-1.17c1.21.18,2.38.4,3.49.67a34.43,34.43,0,0,1-1.15,3.37c-.35-.68-.71-1.36-1.11-2s-.81-1.35-1.23-2Zm-12.65,0c-.42.65-.84,1.33-1.23,2s-.76,1.36-1.1,2a32.6,32.6,0,0,1-1.18-3.39c1.11-.26,2.29-.49,3.51-.67ZM650,487c1.29,0,2.57.06,3.84.17.71,1,1.39,2.09,2.06,3.24s1.24,2.24,1.77,3.39c-.53,1.14-1.12,2.28-1.76,3.39s-1.35,2.25-2.06,3.26c-1.27.11-2.55.17-3.85.17s-2.57-.06-3.84-.16c-.7-1-1.39-2.1-2.06-3.24s-1.24-2.24-1.77-3.39c.53-1.14,1.12-2.29,1.76-3.4s1.35-2.24,2.06-3.26c1.27-.11,2.55-.17,3.85-.17Zm0-4.57c.81.84,1.59,1.73,2.32,2.65l0,.07c-.76,0-1.55-.05-2.34-.05s-1.59,0-2.37.05a34,34,0,0,1,2.35-2.73Zm-8.5-4.93a12.69,12.69,0,0,1,7.15,4h0a40.39,40.39,0,0,0-3.44,4.14l-.08.12a39.73,39.73,0,0,0-5.7,1l.28-.06a23.87,23.87,0,0,1-.44-2.47c-.4-3.25.09-5.78,1.24-6.46a2.57,2.57,0,0,1,1-.23Zm17-.42h.06a1.9,1.9,0,0,1,.92.23h0c1.16.67,1.67,3.2,1.27,6.46a24.27,24.27,0,0,1-.43,2.5,39.26,39.26,0,0,0-5.23-.91l-.18,0a41.49,41.49,0,0,0-3.57-4.28l0,0a12.58,12.58,0,0,1,7.08-4l.07,0Zm0-1.9a14.27,14.27,0,0,0-8.5,4.56h0a14.19,14.19,0,0,0-8.43-4.52l-.08.72h-.2a3.75,3.75,0,0,0-1.84.49h0c-2.34,1.35-2.87,5.56-1.66,10.85-5.18,1.6-8.56,4.16-8.56,6.86s3.39,5.28,8.6,6.87c-1.2,5.3-.67,9.52,1.68,10.87a3.67,3.67,0,0,0,1.79.47h.22s6.36-2.1,8.51-4.49h0a14.23,14.23,0,0,0,8.43,4.53l.08.74h0a3.89,3.89,0,0,0,1.91-.5h0c2.44-1.41,3-5.8,1.72-11.31,5.39-1.65,8.91-4.33,8.91-7.15s-3.54-5.5-9-7.16c1.25-5.53.69-9.93-1.76-11.34a3.79,3.79,0,0,0-1.88-.49h.07Zm-4.61,18.63a3.89,3.89,0,1,1-1.14-2.76h0a3.92,3.92,0,0,1,1.14,2.76Z" transform="translate(-160.17 -123.9)"/><g id="_5151e0c8492e5103c096af88a51e8d81" data-name="5151e0c8492e5103c096af88a51e8d81"><path class="cls-3" d="M709.15,486.31a4.2,4.2,0,0,1-.28-3,7,7,0,0,1,1.74-2.55c2-2,4.43-3.44,6.37-5.46a8.13,8.13,0,0,0,2.27-3.95,8,8,0,0,0-.1-3.38,5.15,5.15,0,0,1,1.07,4.36,9.89,9.89,0,0,1-2.36,4.5,21.91,21.91,0,0,1-3,2.81,12.48,12.48,0,0,0-3.24,3.48,4.52,4.52,0,0,0-.36,3.78c.73,2.13,2.44,3.71,3.38,5.71-1-.91-2-1.85-3-2.85A14,14,0,0,1,709.15,486.31Zm5.59-1.67a6.53,6.53,0,0,0,1.81,4.68,3.33,3.33,0,0,1,1,2.1,3.82,3.82,0,0,1-1.38,2.81c.18,0,.32-.19.47-.27a7.33,7.33,0,0,0,2.9-3,3,3,0,0,0-.2-2.76,24.55,24.55,0,0,1-1.84-2.87,2.73,2.73,0,0,1-.13-1.91,5.6,5.6,0,0,1,1.49-2.14,37.23,37.23,0,0,1,5.8-4.06,22.06,22.06,0,0,0-7.13,3.29A6.32,6.32,0,0,0,714.74,484.64Zm12,8.24a2.79,2.79,0,0,1,2.59,2.15,3.58,3.58,0,0,1-.94,2.86,13.22,13.22,0,0,1-4,3,1.89,1.89,0,0,0-.37.32,13.93,13.93,0,0,0,5.36-2.45,4.63,4.63,0,0,0,1.77-2.78,3,3,0,0,0-1-2.63,4.07,4.07,0,0,0-3.28-.94,2.7,2.7,0,0,0-1.86.79A5.83,5.83,0,0,1,726.72,492.88ZM702.93,496a23.07,23.07,0,0,0,4.38.59c1.32.09,2.63.11,4,.1a51.48,51.48,0,0,0,10.21-1,2.81,2.81,0,0,0,1-.33,14.92,14.92,0,0,1,1.77-.93c-2.73.44-5.47.81-8.23,1a63.91,63.91,0,0,1-8.42.1,7.82,7.82,0,0,1-2.36-.43c-.18-.07-.42-.23-.33-.46a1.81,1.81,0,0,1,.77-.59,25.38,25.38,0,0,1,3.81-1.26,15.93,15.93,0,0,0-6.41,1.39,4.48,4.48,0,0,0-1.32.77.39.39,0,0,0,0,.55A3,3,0,0,0,702.93,496Zm17.75,3a46.88,46.88,0,0,1-5.78.76,37.48,37.48,0,0,1-6.36-.2,3.32,3.32,0,0,1-1.17-.31.61.61,0,0,1-.37-.51c0-.36.33-.62.55-.88a6.53,6.53,0,0,0-1.93.94.89.89,0,0,0-.41.82,1.4,1.4,0,0,0,.8.78,9.13,9.13,0,0,0,2.61.77,30.24,30.24,0,0,0,6.79.22,34.82,34.82,0,0,0,7.08-1.26A6.64,6.64,0,0,1,720.68,499Zm-12,3.79a5,5,0,0,0-1.75.79.78.78,0,0,0-.32.86,1.8,1.8,0,0,0,.89.85,10,10,0,0,0,3,.95,21.87,21.87,0,0,0,7.13-.1,18.54,18.54,0,0,0,4.07-1.22,20.56,20.56,0,0,1-2.45-1.2,38.19,38.19,0,0,1-4.16.58,27.37,27.37,0,0,1-5.57-.25,2.07,2.07,0,0,1-1.29-.52C708.09,503.24,708.44,503,708.64,502.82Zm15,7.05a18,18,0,0,0,4.49-1.39c.43-.25,1-.53,1.11-1.05s-.45-.77-.82-1a.77.77,0,0,1,.15,1,3.19,3.19,0,0,1-1.62.91,34.94,34.94,0,0,1-5.58.93,85.57,85.57,0,0,1-14.93.14,20.44,20.44,0,0,1-4.95-.95c-.25-.11-.64-.22-.64-.56a1.27,1.27,0,0,1,.64-.61,9.44,9.44,0,0,1,3.68-1,2.28,2.28,0,0,0-1.24-.23,10.79,10.79,0,0,0-3.11.65,6.93,6.93,0,0,0-2.44,1.3c-.28.24-.53.7-.24,1a3.18,3.18,0,0,0,1.72.73,74.36,74.36,0,0,0,10.21,1A60.48,60.48,0,0,0,723.63,509.87Zm4.5.59a38.07,38.07,0,0,1-6.33,1.32,71.87,71.87,0,0,1-11.07.49,52,52,0,0,1-6.71-.61,5.62,5.62,0,0,0,1.75.62,42.65,42.65,0,0,0,7.57.71,64.16,64.16,0,0,0,11.09-.66,17.39,17.39,0,0,0,5-1.49,3,3,0,0,0,1.78-2A7.45,7.45,0,0,1,728.13,510.46Z" transform="translate(-160.17 -123.9)"/></g><g id="Page-1"><g id="Dribbble-Light-Preview"><g id="icons"><path id="python-_127_" data-name="python-[#127]" class="cls-12" d="M814.94,510.22a1.58,1.58,0,1,1,1.57-1.57,1.57,1.57,0,0,1-1.57,1.57M810.43,513c9.14,0,8.57-4,8.57-4v-4h-9v-1h12.5s6,.68,6-8.83-5.24-9.17-5.24-9.17H820v4.11a4.74,4.74,0,0,1-5.15,4.89H806s-5-.07-5,4.51v8.69s-.74,4.8,8.81,4.8m-4.75-33.22a1.58,1.58,0,1,1-1.57,1.57,1.57,1.57,0,0,1,1.57-1.57m4.51-2.78c-9.14,0-8.57,4-8.57,4v4h9v1H797.5s-6-.68-6,8.83,5.24,9.17,5.24,9.17H800v-4.11a4.74,4.74,0,0,1,5.15-4.89H814s5,.07,5-4.51V481.8s.74-4.8-8.81-4.8" transform="translate(-160.17 -123.9)"/></g></g></g><path class="cls-3" d="M838,485.39l14-8V513l-6-3.49v-21l-9,5.2,1-7.89ZM869,494l0-8-15-8.79V513l6-3.49v-9.92l5,2.69,0-6.93-5-2.63v-4L870,494Z" transform="translate(-160.17 -123.9)"/><path class="cls-3" d="M900,482.85a.83.83,0,0,1,1.65,0,.83.83,0,1,1-1.65,0ZM895,477l-10.58,10.58a14.87,14.87,0,1,0,21,21h0a14.68,14.68,0,0,0,.13-21h0L903,490.19a11.19,11.19,0,1,1-15.81,0l7-7,.87-1Z" transform="translate(-160.17 -123.9)"/><g id="Page-1-2" data-name="Page-1"><g id="Dribbble-Light-Preview-2" data-name="Dribbble-Light-Preview"><g id="icons-2" data-name="icons"><path id="javascript-_155_" data-name="javascript-[#155]" class="cls-12" d="M352.59,510.18a6.49,6.49,0,0,1-6.16-3.46h0l2.75-1.59a3.7,3.7,0,0,0,3.34,2.05c1.4,0,2.29-.7,2.29-1.67,0-1.45-1.94-2-3.31-2.61-2.44-1-4.06-2.34-4.06-5.1,0-2.53,1.94-4.46,5-4.46a5,5,0,0,1,4.81,2.7l-2.64,1.69a2.3,2.3,0,0,0-2.17-1.45,1.47,1.47,0,0,0-1.62,1.45c0,1,.63,1.43,2.08,2.06,3,1.3,5.34,2.32,5.34,5.68,0,3-2.39,4.71-5.61,4.71Zm-7.59-5.1c-.2,3.5-2.36,5.36-5.36,5.36-2.7,0-4.32-1-5.12-3.44h0l2.75-1.32c.53.94,1,1.61,2.17,1.61s1.81-.57,1.61-2.26V493h4ZM325,513h36V477H325Z" transform="translate(-160.17 -123.9)"/></g></g></g><path class="cls-13" d="M468,396a67.89,67.89,0,0,1-3.38,19.06c-5.58,16.41-14.74,18.88-20.29,33.35C442.14,454.14,440,463.19,441,477" transform="translate(-160.17 -123.9)"/><path class="cls-14" d="M837.79,396a67.83,67.83,0,0,1-3.38,19.05c-5.58,16.41-14.74,18.88-20.29,33.36-2.19,5.73-4.37,14.78-3.38,28.59" transform="translate(-160.17 -123.9)"/><path class="cls-15" d="M468,405a44.67,44.67,0,0,0,5.57,19.06c9.2,16.41,24.3,18.88,33.45,33.35,3.62,5.73,7.21,14.78,5.57,28.59" transform="translate(-160.17 -123.9)"/><path class="cls-16" d="M674.89,395.54a68.32,68.32,0,0,1-3.38,19.06C665.93,431,656.77,433.47,651.22,448c-2.2,5.73-4.38,14.78-3.38,28.59" transform="translate(-160.17 -123.9)"/><path class="cls-17" d="M693,405a101.1,101.1,0,0,0,2.21,19.07c3.66,16.41,9.65,18.88,13.28,33.36,1.44,5.74,2.87,14.79,2.22,28.6" transform="translate(-160.17 -123.9)"/><path class="cls-18" d="M306,405a36.07,36.07,0,0,1-5.64,16.94c-9.3,14.59-24.57,16.78-33.81,29.65-3.67,5.09-7.3,13.13-5.64,25.41" transform="translate(-160.17 -123.9)"/><path class="cls-19" d="M306,405a99.64,99.64,0,0,1-2.27,19.17c-3.76,16.51-9.92,19-13.65,33.56-1.48,5.76-2.94,14.86-2.27,28.76" transform="translate(-160.17 -123.9)"/><path class="cls-20" d="M305.78,414.49a43.06,43.06,0,0,0,4.45,16.94c7.36,14.59,19.44,16.78,26.76,29.65,2.9,5.09,5.77,13.14,4.46,25.41" transform="translate(-160.17 -123.9)"/><path class="cls-21" d="M855,405a54.27,54.27,0,0,0,4.43,19.17c7.31,16.51,19.32,19,26.59,33.56,2.88,5.77,5.74,14.87,4.43,28.76" transform="translate(-160.17 -123.9)"/><path class="cls-22" d="M846,404.75c.06,4.68.27,11.71,1.07,19.17,1.77,16.51,4.68,19,6.44,33.56a201,201,0,0,1,1.08,28.76" transform="translate(-160.17 -123.9)"/></svg>