<svg id="Calque_1" data-name="Calque 1" xmlns="http://www.w3.org/2000/svg" viewBox="0 0 450.6 341.04"><defs><style>.cls-1,.cls-6,.cls-7,.cls-8{fill:none;}.cls-1,.cls-3,.cls-4,.cls-6,.cls-8{stroke:#ccc;}.cls-1,.cls-6{stroke-linecap:square;stroke-linejoin:round;}.cls-2,.cls-3,.cls-4,.cls-5,.cls-9{fill:#ccc;}.cls-3,.cls-4,.cls-8{stroke-miterlimit:10;}.cls-3,.cls-7,.cls-8{fill-rule:evenodd;}.cls-5{font-size:66px;}.cls-5,.cls-9{font-family:ShareTechMono-Regular, Share Tech Mono;}.cls-6{stroke-width:2px;}.cls-9{font-size:25px;}</style></defs><path class="cls-1" d="M576,180s0,63-72,72S387,360,387,360" transform="translate(-350.55 -123.9)"/><path class="cls-1" d="M576,179.79s0,63,72,72,117,108,117,108" transform="translate(-350.55 -123.9)"/><path class="cls-2" d="M353,360.48a4.54,4.54,0,0,0-2.22,2.23c-.25.55-.26,2.41-.26,30.26,0,28.83,0,29.7.3,30.43a4.55,4.55,0,0,0,2.36,2.39l.82.33,25.33.08,25.32,0-.13-.33a4.55,4.55,0,0,1,.21-2.84l.31-.53-.44-.35a3.56,3.56,0,0,1-.7-.8l-.27-.43H356V375.6h64.77l.09,14.85.07,14.8.61.14a5,5,0,0,1,2.15,1.77c0,.18.15.18.59,0a4,4,0,0,1,1.2-.19h.66l.09-22V363.13l-.58-.83a5.11,5.11,0,0,0-2.6-2.13c-.43-.12-9.84-.16-34.82-.16H354Zm51.07,5.39c.88.35,1,.73,1,2.39,0,1.24-.05,1.53-.32,1.86-.45.55-1.26.77-2.56.69-1-.08-1.17-.14-1.62-.56s-.49-.51-.49-1.91c0-1.6.17-2.09.93-2.44A5.17,5.17,0,0,1,404.1,365.87Zm8.35.33c.43.41.49.6.57,1.6.14,2.1-.45,2.9-2.24,3a2.83,2.83,0,0,1-2.47-.69c-.27-.33-.32-.62-.32-1.89s0-1.52.4-2,.75-.61,2.33-.58C411.86,365.73,412,365.76,412.45,366.2Zm7.35-.33c.76.3,1,.91,1,2.27,0,2-.43,2.53-2.12,2.66-2.25.18-2.95-.43-2.95-2.52,0-1.48.25-2.09,1-2.4A5.51,5.51,0,0,1,419.8,365.87Z" transform="translate(-350.55 -123.9)"/><path class="cls-2" d="M391.42,381.2a2.89,2.89,0,0,0-1,.72c-.46.64-8.45,24.62-8.45,25.35,0,2,3.05,3,4.27,1.28.41-.56,8.46-24.69,8.46-25.38a2.18,2.18,0,0,0-1.32-1.92A1.86,1.86,0,0,0,391.42,381.2Z" transform="translate(-350.55 -123.9)"/><path class="cls-2" d="M375.27,389.32l-6.55,2.92c-1.87.84-2.53,1.2-2.84,1.6a2.34,2.34,0,0,0,.43,3.28c.23.15,3.24,1.54,6.71,3.1,6.89,3.08,7.14,3.16,8.19,2.47a2.51,2.51,0,0,0,1.11-1.85,3.53,3.53,0,0,0-.33-1.11c-.32-.64-.45-.72-2.74-1.79-1.32-.61-3.16-1.43-4.09-1.84a10.1,10.1,0,0,1-1.72-.84c0-.05,1.64-.8,3.62-1.67s3.83-1.72,4.12-1.89a2.6,2.6,0,0,0,1.14-1.89,2.82,2.82,0,0,0-1.27-2.06C380.05,387.25,379.64,387.35,375.27,389.32Z" transform="translate(-350.55 -123.9)"/><path class="cls-2" d="M395.87,387.64c-1.6.9-1.92,2.69-.67,3.76a39.79,39.79,0,0,0,4.28,2.1c2.06.93,3.76,1.73,3.76,1.77s-1.74.86-3.87,1.8a31.4,31.4,0,0,0-4.28,2.14,2.26,2.26,0,0,0,1.73,3.83c.41,0,2.35-.79,6.94-2.84,3.51-1.57,6.55-3,6.74-3.17a2.31,2.31,0,0,0-.18-3.68c-.2-.12-3.15-1.48-6.54-3C397.49,387.52,396.62,387.23,395.87,387.64Z" transform="translate(-350.55 -123.9)"/><path class="cls-2" d="M417.07,408.18c-.28.23-.33.48-.36,1.62l0,1.34-.79.28-1.05.38c-.19.08-.47-.15-1.09-.85-1.06-1.24-1.28-1.35-2-.89-1.22.87-2.33,1.89-2.33,2.18a3.49,3.49,0,0,0,.76,1.16,9.08,9.08,0,0,1,.87,1c.16.24-1,2-1.3,2-.14,0-.71-.09-1.28-.2-1.19-.23-1.52-.18-1.66.17a16.62,16.62,0,0,0-.56,3.05c0,.58.16.67,1.87.95,1,.15,1.16.23,1.21.5s.14.67.22,1.1.11.79,0,.87l-1.22.69c-1.34.76-1.38,1-.32,2.7a5.67,5.67,0,0,0,1.07,1.42c.25.09.71-.11,2-.84l.8-.46.87.75.85.75-.45,1.29c-.37,1-.43,1.36-.31,1.56a6.75,6.75,0,0,0,1.78.81c1.25.41,1.66.5,1.89.36a4.24,4.24,0,0,0,.74-1.42l.46-1.25,1.17.05,1.19,0,.49,1.3c.42,1.06.57,1.31.86,1.34a13,13,0,0,0,3.34-1.08c.29-.21.24-.67-.22-1.91l-.43-1.1.62-.53c1.13-.95,1.16-.95,2.41-.24a5.93,5.93,0,0,0,1.35.62c.31,0,.6-.35,1.47-1.8s.89-1.51-.62-2.39c-.57-.34-1.07-.66-1.14-.71a3.91,3.91,0,0,1,.1-1.17l.19-1.09,1.12-.16c2.11-.32,2.09-.32,1.7-2.4a10.63,10.63,0,0,0-.41-1.72c-.13-.2-1.16-.16-2.63.09-.58.09-.58.09-1.13-.87l-.55-1,.84-1a3.77,3.77,0,0,0,.85-1.33c0-.24-.38-.65-1.3-1.42a6.85,6.85,0,0,0-1.58-1.07,11.11,11.11,0,0,0-2.13,2.11,10.75,10.75,0,0,1-1.14-.37l-1.14-.41v-1.42c0-1.74,0-1.74-2.11-1.74C417.71,407.92,417.34,408,417.07,408.18Zm3.37,8.43a3.72,3.72,0,0,1,2.29,3.42,3.24,3.24,0,0,1-1,2.45,4,4,0,0,1-6.29-.62,3.85,3.85,0,0,1-.08-3.51,4.44,4.44,0,0,1,2.11-1.82A4.76,4.76,0,0,1,420.44,416.61Z" transform="translate(-350.55 -123.9)"/><path class="cls-2" d="M666,417H631V366h36v4h4v-4.65c.25-4.59-8.11-8.35-8.11-8.35H634.35a8.38,8.38,0,0,0-8.35,8.35v60.3a8.38,8.38,0,0,0,8.35,8.35h28.29a8.38,8.38,0,0,0,8.36-8.36V417Zm-17.38,12.38a3.83,3.83,0,1,1,3.83-3.82A3.82,3.82,0,0,1,648.62,429.38Z" transform="translate(-350.55 -123.9)"/><rect class="cls-2" x="284.45" y="247.1" width="11" height="7"/><rect class="cls-2" x="284.45" y="264.1" width="11" height="7"/><rect class="cls-2" x="284.45" y="281.1" width="11" height="7"/><path class="cls-2" d="M683.55,391a16.41,16.41,0,0,0-2.23-5.86l3.84-4.16-3.92-4.23-3.83,4.15a13.85,13.85,0,0,0-5.41-2.41V374h-6v5.44a16.36,16.36,0,0,0-5.85,2.23L656,377.83l-4.24,3.92,4.15,3.84a13.93,13.93,0,0,0-2.41,5.41H649v6h5.44a16.42,16.42,0,0,0,2.22,5.85L652.82,407l3.93,4.23,3.84-4.15A14,14,0,0,0,666,409.5V414h6v-5.44a16.43,16.43,0,0,0,5.85-2.23l4.14,3.84,4.24-3.91-4.15-3.84a14,14,0,0,0,2.41-5.42H689v-6Zm-14.31,8.91a6,6,0,1,1,6-6A6,6,0,0,1,669.24,399.91Z" transform="translate(-350.55 -123.9)"/><path class="cls-3" d="M465.2,360h76.6a2.2,2.2,0,0,1,2.2,2.2v50.6a2.2,2.2,0,0,1-2.2,2.2H465.2a2.2,2.2,0,0,1-2.2-2.21V362.18A2.2,2.2,0,0,1,465.2,360Zm6.8,15h5.5a.51.51,0,0,1,.5.53h0v2a.49.49,0,0,1-.49.49h-6.19s-.5,0-.32-.27v-1.91c-.18-.27,0-.49,1-.49Zm-.51,16h20a.51.51,0,0,1,.5.5v2a.49.49,0,0,1-.49.49h-20a.51.51,0,0,1-.5-.5v-2A.49.49,0,0,1,471.49,391Zm-.49-7.5a.5.5,0,0,1,.5-.5h12a.5.5,0,0,1,.49.51v2a.51.51,0,0,1-.49.51h-12a.51.51,0,0,1-.5-.5Zm0,17a.5.5,0,0,1,.5-.5h28a.5.5,0,0,1,.49.51v2a.5.5,0,0,1-.49.51h-28a.51.51,0,0,1-.5-.5ZM493.5,418h20c.06,3.46,1.48,6.56,5.35,9h-30.7C491.26,424.75,493.51,422,493.5,418ZM541,367v40a2,2,0,0,1-2,2H467.94a2,2,0,0,1-1.94-2V368h18v2.64a1.32,1.32,0,0,0,1.27,1.36h1.93a11.12,11.12,0,0,0,.9,2.64l-1.49,1.6a1.43,1.43,0,0,0,0,1.9l1.85,2a1.2,1.2,0,0,0,1.77,0l1.37-1.47a9.5,9.5,0,0,0,2.4,1.16v.86a1.32,1.32,0,0,0,1.32,1.32h2.36a1.32,1.32,0,0,0,1.32-1.32v-1.85a9.41,9.41,0,0,0,2.39-.93l1.45,1.49a1.2,1.2,0,0,0,1.71,0l1.8-1.85a1.31,1.31,0,0,0,0-1.77L505,374.4a10.06,10.06,0,0,0,1.05-2.4h3.6a1.32,1.32,0,0,0,1.32-1.32v-3.11a1.8,1.8,0,0,0-.1-.57Zm-8.52,10.47,2.13,2a1.44,1.44,0,0,1,0,2.08l-1.71,1.64A10.66,10.66,0,0,1,534,386h1.61a1.45,1.45,0,0,1,1.4,1.47v3.06a1.44,1.44,0,0,1-1.41,1.47h-2.37a11.93,11.93,0,0,1-1.23,2.81l1.54,1.6a1.5,1.5,0,0,1,0,2.07l-2.08,2.14a1.36,1.36,0,0,1-2,0l-1.68-1.74A10.7,10.7,0,0,1,525,400v1.63a1.44,1.44,0,0,1-1.47,1.41h-3.06a1.44,1.44,0,0,1-1.47-1.41v-2.36a12,12,0,0,1-2.81-1.24l-1.63,1.58a1.45,1.45,0,0,1-2,0l-2.15-2.07a1.43,1.43,0,0,1,0-2.08l1.7-1.64A10.84,10.84,0,0,1,511,391h-1.61a1.44,1.44,0,0,1-1.41-1.46v-3.09a1.45,1.45,0,0,1,1.45-1.45h2.33a11.79,11.79,0,0,1,1.23-2.79l-1.57-1.64a1.41,1.41,0,0,1,0-2l0,0,2.08-2.16a1.38,1.38,0,0,1,2,0l1.68,1.74a10.63,10.63,0,0,1,2.77-1.08v-1.64a1.44,1.44,0,0,1,1.47-1.41h3.06a1.44,1.44,0,0,1,1.47,1.41v2.37a11.93,11.93,0,0,1,2.81,1.23l1.6-1.54a1.53,1.53,0,0,1,2.07,0ZM502.31,368a5.35,5.35,0,1,1-10.25,0Zm20.33,14.45a5.94,5.94,0,1,1-5.94,5.93h0A5.94,5.94,0,0,1,522.64,382.45ZM538,363.24a1.32,1.32,0,1,1-1.31,1.32A1.32,1.32,0,0,1,538,363.24Zm-8.85,0a1.32,1.32,0,1,1-1.32,1.32A1.32,1.32,0,0,1,529.16,363.24Zm4.42,0a1.32,1.32,0,1,1-1.31,1.32A1.32,1.32,0,0,1,533.58,363.24Z" transform="translate(-350.55 -123.9)"/><path class="cls-4" d="M780.44,418.89a2.2,2.2,0,0,0-.86-.17,2.27,2.27,0,0,0-.86.17,2,2,0,0,0-.7.48h0a2.33,2.33,0,0,0-.31.38l-.13.24H774v-3.1a8.06,8.06,0,0,1-1.7.56l-.3.06V421a1,1,0,0,0,.29.71,1,1,0,0,0,.71.29h4.6a.82.82,0,0,0,.12.2,2.24,2.24,0,0,0,.27.34l0,0a2.22,2.22,0,0,0,.72.48,2.27,2.27,0,0,0,.86.17,2.18,2.18,0,0,0,.85-.16h0a2.26,2.26,0,0,0,.73-.48,2.51,2.51,0,0,0,.49-.74,2.4,2.4,0,0,0,.17-.86,2.23,2.23,0,0,0-.66-1.59,2.3,2.3,0,0,0-.74-.48ZM763.57,396h-4.26l-.6,2h-4.3l4.89-13h4.4l4.87,13h-4.39l-.61-2Zm-.73-3-1.39-4.58-1.4,4.58Zm7.16-8h4v13h-4V385Zm-3.54-12.06a7,7,0,0,0-1.71,1.85.24.24,0,0,1-.1.1.34.34,0,0,1-.46-.1,6.67,6.67,0,0,0-1.71-1.85,5.57,5.57,0,0,0-2.14-.94h0a5.82,5.82,0,0,0-2.2,0,6.69,6.69,0,0,0-2.16.79,7.06,7.06,0,0,0-1.73,1.44,6.09,6.09,0,0,0-1.11,1.86h0c0,.11-.08.22-.11.33l-.09.34a.33.33,0,0,1-.32.27,6.3,6.3,0,0,0-2.26.82,7.54,7.54,0,0,0-2,1.73,8.81,8.81,0,0,0-1.42,2.47,9.25,9.25,0,0,0-.56,2.84c0,.13,0,.26,0,.39s0,.25,0,.38a.34.34,0,0,1-.14.3A11.44,11.44,0,0,0,745,387a10,10,0,0,0-1,1.16,7.79,7.79,0,0,0-1.07,2,7,7,0,0,0-.38,2.18,6.72,6.72,0,0,0,.28,2.05,7.62,7.62,0,0,0,.89,1.95h0a8.4,8.4,0,0,0,.74,1,11.38,11.38,0,0,0,.9.94.32.32,0,0,1,.1.32,8.37,8.37,0,0,0-.15,1.29,7.91,7.91,0,0,0,.07,1.3,7.68,7.68,0,0,0,.65,2.2,8.61,8.61,0,0,0,1.29,2,8.31,8.31,0,0,0,1.66,1.48,7.82,7.82,0,0,0,1.91,1,7,7,0,0,0,.9.23,5.18,5.18,0,0,0,.87.11.32.32,0,0,1,.33.26,5.87,5.87,0,0,0,.81,1.93,6.71,6.71,0,0,0,1.49,1.61,6.59,6.59,0,0,0,2.49,1.22,5.7,5.7,0,0,0,2.63.07,5.63,5.63,0,0,0,2.26-1,6.7,6.7,0,0,0,1.75-2,.33.33,0,0,1,.14-.12.33.33,0,0,1,.45.14,6.11,6.11,0,0,0,1.49,1.86,5.4,5.4,0,0,0,2,1,6.07,6.07,0,0,0,2.78.05A7.24,7.24,0,0,0,774,412a7.07,7.07,0,0,0,1.66-1.66,6,6,0,0,0,.94-2,.32.32,0,0,1,.27-.27,6.44,6.44,0,0,0,2.46-1,8.19,8.19,0,0,0,2.05-2.06,8.89,8.89,0,0,0,1.22-2.6,9.43,9.43,0,0,0,.33-2.9.38.38,0,0,1,.16-.31,11.12,11.12,0,0,0,1.32-1.06,9.65,9.65,0,0,0,1.06-1.18h0a7.68,7.68,0,0,0,1-1.95,6.89,6.89,0,0,0,.39-2.09,7.22,7.22,0,0,0-.23-2,8,8,0,0,0-.8-1.91l0,0a8.78,8.78,0,0,0-.8-1.15,9.79,9.79,0,0,0-1-1,.38.38,0,0,1-.12-.35,7.8,7.8,0,0,0,.15-1.17,7.72,7.72,0,0,0,0-1.18,7.54,7.54,0,0,0-.62-2.28,8.49,8.49,0,0,0-1.28-2.06,9.09,9.09,0,0,0-1.69-1.54,7.85,7.85,0,0,0-1.93-1h0a6,6,0,0,0-1.07-.27h0a6.15,6.15,0,0,0-1-.08.32.32,0,0,1-.34-.25c-.06-.24-.14-.47-.22-.7s-.2-.45-.32-.68a6.59,6.59,0,0,0-1.21-1.57,7,7,0,0,0-1.66-1.18,6.52,6.52,0,0,0-2-.63,5.85,5.85,0,0,0-2,.06,6.15,6.15,0,0,0-2.16,1Zm9.87,6.44a.35.35,0,0,1,.32-.24,3.33,3.33,0,0,1,.77,0,4.58,4.58,0,0,1,.79.2,5.88,5.88,0,0,1,1.47.76,6.33,6.33,0,0,1,1.26,1.17h0a6.58,6.58,0,0,1,1,1.56,5.7,5.7,0,0,1,.46,1.7,5.81,5.81,0,0,1,0,1.25,5.51,5.51,0,0,1-.27,1.21v0a1.16,1.16,0,0,0,0,.76,1.2,1.2,0,0,0,.46.61h0a7.91,7.91,0,0,1,1.12,1,6.89,6.89,0,0,1,.87,1.18,5.56,5.56,0,0,1,.59,1.41,4.51,4.51,0,0,1,.18,1.45,4.63,4.63,0,0,1-.29,1.49,5.26,5.26,0,0,1-.74,1.37h0a7.2,7.2,0,0,1-1.11,1.19,10.26,10.26,0,0,1-1.47,1l0,0a1.09,1.09,0,0,0-.48.54,1.19,1.19,0,0,0-.08.72v.05a7.33,7.33,0,0,1-.12,2.62,6.81,6.81,0,0,1-1,2.34,5.84,5.84,0,0,1-1.2,1.31,4.39,4.39,0,0,1-1.44.8h.07s-.38-.3-.44-.48c-.68-2.22-1.86-2.94-3.85-4l0,0a1.1,1.1,0,0,0-.85-.06,1.08,1.08,0,0,0-.65.54l0,0a1.19,1.19,0,0,0-.06.85,1.18,1.18,0,0,0,.57.66c1.66.85,2.89,1.49,2.88,3.58a3.52,3.52,0,0,1-.53,1.77,5.15,5.15,0,0,1-1.41,1.5,5.41,5.41,0,0,1-1.92.89,3.94,3.94,0,0,1-1.93,0,3.52,3.52,0,0,1-2.2-1.84,10,10,0,0,1-.85-2.61.28.28,0,0,1,0-.09.93.93,0,0,0-.78-.85,2,2,0,0,0-.61-.08,2.43,2.43,0,0,0-.61.08.94.94,0,0,0-.77.85s0,.05,0,.08a8.26,8.26,0,0,1-1.4,3.08,3.89,3.89,0,0,1-2.27,1.48,4,4,0,0,1-1.78-.06,4.86,4.86,0,0,1-1.7-.85,4.46,4.46,0,0,1-1.2-1.4,3.49,3.49,0,0,1-.44-1.66c0-2.2,1.32-2.94,3.08-3.84a1.11,1.11,0,0,0,.56-.65,1.2,1.2,0,0,0-.06-.87,1.22,1.22,0,0,0-.66-.57,1.19,1.19,0,0,0-.85.06h0c-2.07,1.06-3.31,1.83-4.05,4.13a.36.36,0,0,1-.35.26,4.36,4.36,0,0,1-.62-.07,3.91,3.91,0,0,1-.61-.17,6.3,6.3,0,0,1-1.44-.73,7.32,7.32,0,0,1-1.25-1.12,6.89,6.89,0,0,1-1-1.5,2.75,2.75,0,0,1-.31-1.64h0a2.09,2.09,0,0,1-.21-1.32,6.13,6.13,0,0,1,.29-1.29v0a1.17,1.17,0,0,0,0-.74h0a1.23,1.23,0,0,0-.45-.61h0a7.92,7.92,0,0,1-1-.93,7,7,0,0,1-.82-1.08,5.91,5.91,0,0,1-.64-1.43,4.94,4.94,0,0,1-.2-1.48,4.74,4.74,0,0,1,.27-1.56,6.06,6.06,0,0,1,.78-1.45,7.08,7.08,0,0,1,1.1-1.18,9.12,9.12,0,0,1,1.43-1,1.22,1.22,0,0,0,.44-.49v0a1.09,1.09,0,0,0,.11-.64.32.32,0,0,0,0-.07v.12c0-.21,0-.43-.06-.63s0-.45,0-.67a7.18,7.18,0,0,1,.43-2.22,6.8,6.8,0,0,1,1.09-1.92,5.49,5.49,0,0,1,1.23-1.14,4.51,4.51,0,0,1,1.38-.63h0a.35.35,0,0,1,.43.23,5.77,5.77,0,0,0,1.74,2.78l0,0a1.09,1.09,0,0,0,1.56-.06l0,0a1.17,1.17,0,0,0,.29-.8,1.14,1.14,0,0,0-.36-.79,3.79,3.79,0,0,1-1.07-4,4,4,0,0,1,.77-1.29,4.85,4.85,0,0,1,1.18-1h0a4.39,4.39,0,0,1,1.47-.56,3.59,3.59,0,0,1,3.43,1.14,6.67,6.67,0,0,1,1.36,2.33h0a1.22,1.22,0,0,0,1,.72,3,3,0,0,0,.67,0h0a2.34,2.34,0,0,0,.65-.12,1,1,0,0,0,.71-.57v-.14a3.25,3.25,0,0,1,1-2.06,4.47,4.47,0,0,1,2.17-1.34,3.77,3.77,0,0,1,1.34,0,4.44,4.44,0,0,1,1.32.43h0A4.81,4.81,0,0,1,773,375a4.5,4.5,0,0,1,.85,1.1,3.47,3.47,0,0,1,.39,2.14,2.86,2.86,0,0,1-.68,1.77h0a1.12,1.12,0,0,0,.12,1.57l0,0a1.17,1.17,0,0,0,.81.25,1.09,1.09,0,0,0,.74-.38l0,0a4.91,4.91,0,0,0,1-2.08Zm13.56,29.06a2.2,2.2,0,0,1-.17-.86,2.27,2.27,0,0,1,.17-.86,2,2,0,0,1,.48-.7v0a2.33,2.33,0,0,1,.38-.31l.24-.13V402h-4.4c0-.23,0-.46,0-.7a.34.34,0,0,1,.16-.33,14,14,0,0,0,1.24-1h4a1,1,0,0,1,.71.29,1,1,0,0,1,.29.71v4.6a.82.82,0,0,1,.2.12,2.24,2.24,0,0,1,.34.27l0,0a2.22,2.22,0,0,1,.48.72,2.27,2.27,0,0,1,.17.86,2.22,2.22,0,0,1-.16.85h0a2.26,2.26,0,0,1-.48.73,2.51,2.51,0,0,1-.74.49,2.4,2.4,0,0,1-.86.17,2.23,2.23,0,0,1-1.59-.66,2.3,2.3,0,0,1-.48-.74Zm6.5-11.44h-6a5.58,5.58,0,0,0,.28-.67A7,7,0,0,0,791,395h5.35a2.53,2.53,0,0,1,.13-.22,2.16,2.16,0,0,1,.29-.37,2.11,2.11,0,0,1,.73-.48,2.27,2.27,0,0,1,.86-.17,2.17,2.17,0,0,1,.84.16h0a2.16,2.16,0,0,1,1.21,1.21,2.24,2.24,0,0,1,.17.86,2.2,2.2,0,0,1-1.38,2.07,2.24,2.24,0,0,1-.86.17,2.17,2.17,0,0,1-.84-.16h0a2.26,2.26,0,0,1-.73-.48,3.51,3.51,0,0,1-.29-.36v0l-.12-.21Zm1.6-6H790.5a8.81,8.81,0,0,0-.81-1.84h0a1.09,1.09,0,0,0-.08-.15H797v-6.53l-.17-.1a3.88,3.88,0,0,1-.31-.26,2.24,2.24,0,0,1,0-3.18,2.16,2.16,0,0,1,.73-.48,2.2,2.2,0,0,1,.86-.17,2.31,2.31,0,0,1,.86.17,2.22,2.22,0,0,1,.72.48,2.13,2.13,0,0,1,.49.73,2.24,2.24,0,0,1,.17.86,2.37,2.37,0,0,1-.16.84v0a2.13,2.13,0,0,1-.49.73,2.78,2.78,0,0,1-.42.33l-.27.14V390a1,1,0,0,1-1,1Zm-8-5h-2.55a10.64,10.64,0,0,0,.12-1.12,8.58,8.58,0,0,0,0-.88H789v-2.95l-.23-.13a2.11,2.11,0,0,1-.37-.3h0a2.23,2.23,0,0,1-.49-.73,2.27,2.27,0,0,1-.17-.86,2.22,2.22,0,0,1,.17-.85,2.3,2.3,0,0,1,.47-.72h0a2.09,2.09,0,0,1,.72-.49,2.27,2.27,0,0,1,.86-.17,2.2,2.2,0,0,1,.86.17,2,2,0,0,1,.71.48h0a2.17,2.17,0,0,1,.48.71v0a2.38,2.38,0,0,1,.17.85,2.44,2.44,0,0,1-.17.86,2.31,2.31,0,0,1-.47.71l0,0a3.58,3.58,0,0,1-.36.3L791,381v4a1,1,0,0,1-.29.71,1,1,0,0,1-.71.29Zm-41.44-18.89a2.4,2.4,0,0,0,.86.17,2.48,2.48,0,0,0,.86-.17,2.13,2.13,0,0,0,.7-.48h0a2.33,2.33,0,0,0,.31-.38l.13-.24H755v3.08a7.6,7.6,0,0,1,2-.72V365a1,1,0,0,0-1-1h-4.6a.82.82,0,0,0-.12-.2,2.24,2.24,0,0,0-.27-.34h0a2.09,2.09,0,0,0-.72-.49,2.27,2.27,0,0,0-.86-.17,2.38,2.38,0,0,0-.85.16h0a2.13,2.13,0,0,0-.73.49,2.34,2.34,0,0,0-.49.73,2.38,2.38,0,0,0-.17.85,2.48,2.48,0,0,0,.17.86,2.34,2.34,0,0,0,.49.73,2.65,2.65,0,0,0,.74.49ZM760,360.7v7.72a6.13,6.13,0,0,1,1.93.93l.06.06s0,0,0-.06V360.7l.22-.12a2.2,2.2,0,0,0,.37-.3,2.26,2.26,0,0,0,.48-.73,2.27,2.27,0,0,0,0-1.7h0a2.26,2.26,0,0,0-.48-.73,2.13,2.13,0,0,0-.73-.49,2.24,2.24,0,0,0-.86-.17,2.27,2.27,0,0,0-.86.17,2.13,2.13,0,0,0-.73.49,2.16,2.16,0,0,0-.48.73,2.19,2.19,0,0,0-.17.85,2.22,2.22,0,0,0,.16.85h0a2.26,2.26,0,0,0,.48.73,2.54,2.54,0,0,0,.36.29h0l.22.12Zm6-1.69v11.28a7.16,7.16,0,0,1,.85-.73,5.78,5.78,0,0,1,1.15-.66V360h6.53l.1.17a3.88,3.88,0,0,0,.26.31,2.24,2.24,0,0,0,3.18,0,2.16,2.16,0,0,0,.48-.73,2.2,2.2,0,0,0,.17-.86,2.31,2.31,0,0,0-.17-.86,2.22,2.22,0,0,0-.48-.72,2.39,2.39,0,0,0-.74-.49,2.27,2.27,0,0,0-.86-.17,2.41,2.41,0,0,0-.84.16h0a2.13,2.13,0,0,0-.73.49,2.31,2.31,0,0,0-.34.42,2.29,2.29,0,0,0-.14.27H767a1,1,0,0,0-.71.29,1,1,0,0,0-.29.72Zm5,8v1.55l.62.06A7.35,7.35,0,0,1,773,369V368h3l.13.23a2.11,2.11,0,0,0,.3.37h0a2.23,2.23,0,0,0,.73.49,2.27,2.27,0,0,0,.86.17,2.22,2.22,0,0,0,.85-.17,2.3,2.3,0,0,0,.72-.47v0a2.09,2.09,0,0,0,.49-.72,2.27,2.27,0,0,0,.17-.86,2.2,2.2,0,0,0-.17-.86,2,2,0,0,0-.48-.71v0a2.17,2.17,0,0,0-.71-.48h0a2.38,2.38,0,0,0-.85-.17,2.44,2.44,0,0,0-.86.17,2.31,2.31,0,0,0-.71.47l0,0a3.58,3.58,0,0,0-.3.36,2.12,2.12,0,0,0-.11.21h-4a1,1,0,0,0-1,1Zm-30.89,10a2.51,2.51,0,0,1,.17.92,2.59,2.59,0,0,1-.17.92,2.32,2.32,0,0,1-.47.75v0a2.37,2.37,0,0,1-.39.32,1.88,1.88,0,0,1-.24.14V384h4v.18c0,.13,0,.27,0,.42a.38.38,0,0,1-.16.33,12.68,12.68,0,0,0-1.43,1.07H738a1,1,0,0,1-.71-.31,1.08,1.08,0,0,1-.3-.76V380a1.37,1.37,0,0,1-.2-.13,1.87,1.87,0,0,1-.34-.29l0,0a2.58,2.58,0,0,1-.49-.78,2.72,2.72,0,0,1-.17-.91,2.44,2.44,0,0,1,.17-.9v0a2.58,2.58,0,0,1,.49-.78,2.26,2.26,0,0,1,.74-.52,2,2,0,0,1,.86-.18,2.11,2.11,0,0,1,.86.18,2.26,2.26,0,0,1,.74.52,2.71,2.71,0,0,1,.47.79Zm-6.53,13h5.33c-.09.2-.17.41-.25.62a7.72,7.72,0,0,0-.34,1.38h-4.74l-.12.22a2.2,2.2,0,0,1-.3.37,2.29,2.29,0,0,1-.73.49,2.44,2.44,0,0,1-.86.17,2.17,2.17,0,0,1-.84-.17h0a2.46,2.46,0,0,1-.73-.49,2,2,0,0,1-.49-.73,2.26,2.26,0,0,1,0-1.72,2.28,2.28,0,0,1,1.22-1.22,2.24,2.24,0,0,1,.86-.17,2.17,2.17,0,0,1,.84.16h0a2.13,2.13,0,0,1,.73.49,1.64,1.64,0,0,1,.29.35v0l.12.22ZM732,395h7.07a8.19,8.19,0,0,0,.92,2h0v0h-7v6.53l.17.1a3.88,3.88,0,0,1,.31.26,2.24,2.24,0,0,1,0,3.18,2.16,2.16,0,0,1-.73.48,2.2,2.2,0,0,1-.86.17,2.31,2.31,0,0,1-.86-.17,2.22,2.22,0,0,1-.72-.48,2.39,2.39,0,0,1-.49-.74,2.27,2.27,0,0,1-.17-.86,2.37,2.37,0,0,1,.16-.84v0a2.13,2.13,0,0,1,.49-.73,2.27,2.27,0,0,1,.42-.33l.27-.14V396a1,1,0,0,1,.29-.7A1,1,0,0,1,732,395Zm8,6h1.86a8.33,8.33,0,0,0-.1,1.1,8.94,8.94,0,0,0,0,.9H741V406l.23.13a2.11,2.11,0,0,1,.37.3h0a2.23,2.23,0,0,1,.49.73,2.27,2.27,0,0,1,.17.86,2.24,2.24,0,0,1-.17.86,2.15,2.15,0,0,1-.47.71l0,0a2.42,2.42,0,0,1-.72.49,2.48,2.48,0,0,1-.86.16,2.39,2.39,0,0,1-.86-.16,2.34,2.34,0,0,1-.71-.48h0a2.17,2.17,0,0,1-.48-.71v0a2.44,2.44,0,0,1-.17-.86,2.48,2.48,0,0,1,.17-.86,2.44,2.44,0,0,1,.47-.71l0,0a3.51,3.51,0,0,1,.36-.29L739,406v-4a1,1,0,0,1,.29-.71,1,1,0,0,1,.71-.3Zm29,24.49v-7.93a5.87,5.87,0,0,1-2-1.08h0v9l-.22.13a2.16,2.16,0,0,0-.37.29,2.51,2.51,0,0,0-.49.74,2.4,2.4,0,0,0-.17.86,2.21,2.21,0,0,0,.17.84v0a2.46,2.46,0,0,0,.49.73,2.34,2.34,0,0,0,.73.49,2.26,2.26,0,0,0,1.72,0,2.34,2.34,0,0,0,.73-.49,2.13,2.13,0,0,0,.49-.73,2.27,2.27,0,0,0,.17-.86,2.22,2.22,0,0,0-.16-.85h0a2.17,2.17,0,0,0-.49-.74,2,2,0,0,0-.35-.28l0,0-.22-.12Zm-6,2.5V416.6a6.46,6.46,0,0,1-.75.65A5.71,5.71,0,0,1,761,418v9h-6.53l-.1-.17a3.88,3.88,0,0,0-.26-.31,2.24,2.24,0,0,0-3.18,0,2.16,2.16,0,0,0-.48.73,2.2,2.2,0,0,0-.17.86,2.31,2.31,0,0,0,.17.86,2.22,2.22,0,0,0,.48.72,2.13,2.13,0,0,0,.73.49,2.24,2.24,0,0,0,.86.17,2.37,2.37,0,0,0,.84-.16h0a2.13,2.13,0,0,0,.73-.49,2.78,2.78,0,0,0,.33-.42,2.29,2.29,0,0,0,.14-.27H762a1,1,0,0,0,.71-.29,1,1,0,0,0,.3-.72Zm-5-9v-1.65a6.49,6.49,0,0,1-1.31-.2l-.69-.21V418h-3l-.13-.23a2.63,2.63,0,0,0-.3-.38h0a2.37,2.37,0,0,0-.73-.48,2.27,2.27,0,0,0-.86-.17,2.22,2.22,0,0,0-.85.17,2.3,2.3,0,0,0-.72.47h0a2,2,0,0,0-.49.73,2.24,2.24,0,0,0-.17.86,2.2,2.2,0,0,0,.17.86,2.16,2.16,0,0,0,.48.72h0a2,2,0,0,0,.71.48h0a2.19,2.19,0,0,0,.85.17,2.27,2.27,0,0,0,.86-.17,2.15,2.15,0,0,0,.71-.47l0,0a2.73,2.73,0,0,0,.3-.36A2.12,2.12,0,0,0,753,420h4a1,1,0,0,0,.71-.29A1,1,0,0,0,758,419Z" transform="translate(-350.55 -123.9)"/><text class="cls-5" transform="translate(153.45 56.1)">CODZ</text><path class="cls-6" d="M576,180" transform="translate(-350.55 -123.9)"/><path class="cls-7" d="M576,180c-4.33,24.08-15.13,62.86-45,99a203.24,203.24,0,0,1-27,27" transform="translate(-350.55 -123.9)"/><path class="cls-8" d="M575.5,189a117.69,117.69,0,0,1-9,40.35c-14.85,34.75-39.23,40-54,70.62-5.85,12.14-11.65,31.29-9,60.53" transform="translate(-350.55 -123.9)"/><path class="cls-8" d="M576,186a121.44,121.44,0,0,0,9,40.91c14.76,35.22,39,40.52,53.67,71.58,5.81,12.31,11.58,31.73,9,61.36" transform="translate(-350.55 -123.9)"/><text class="cls-9" transform="translate(18.45 335.1)">Web</text><text class="cls-9" transform="translate(104.29 334.9)">Desktop</text><text class="cls-9" transform="translate(261.29 334.9)">Mobile</text><text class="cls-9" transform="translate(401.29 335.16)">AI</text></svg>