<svg id="Calque_1" data-name="Calque 1" xmlns="http://www.w3.org/2000/svg" xmlns:xlink="http://www.w3.org/1999/xlink" viewBox="0 0 419.45 300.39"><defs><style>.cls-1,.cls-2,.cls-7,.cls-8,.cls-9{fill:none;}.cls-1,.cls-2,.cls-7{stroke-linecap:square;stroke-linejoin:round;}.cls-1{stroke:url(#Dégradé_sans_nom_168);}.cls-2{stroke:url(#Dégradé_sans_nom_175);}.cls-10,.cls-3,.cls-4,.cls-5,.cls-6{fill:#ccc;}.cls-4,.cls-5,.cls-7{stroke:#ccc;}.cls-4,.cls-5,.cls-8,.cls-9{stroke-miterlimit:10;}.cls-4,.cls-8,.cls-9{fill-rule:evenodd;}.cls-6{font-size:66px;}.cls-10,.cls-6{font-family:ShareTechMono-Regular, Share Tech Mono;}.cls-7{stroke-width:2px;}.cls-8{stroke:url(#Dégradé_sans_nom_170);}.cls-9{stroke:url(#Dégradé_sans_nom_173);}.cls-10{font-size:18px;}</style><linearGradient id="Dégradé_sans_nom_168" x1="386.34" y1="270.08" x2="576.5" y2="270.08" gradientUnits="userSpaceOnUse"><stop offset="0" stop-color="#ccc"/><stop offset="0.46" stop-color="#ccc" stop-opacity="0.51"/><stop offset="0.83" stop-color="#ccc" stop-opacity="0.14"/><stop offset="1" stop-color="#ccc" stop-opacity="0"/></linearGradient><linearGradient id="Dégradé_sans_nom_175" x1="575.47" y1="269.87" x2="765.63" y2="269.87" gradientUnits="userSpaceOnUse"><stop offset="0" stop-color="#ccc" stop-opacity="0"/><stop offset="0.04" stop-color="#ccc" stop-opacity="0.05"/><stop offset="0.52" stop-color="#ccc" stop-opacity="0.56"/><stop offset="0.85" stop-color="#ccc" stop-opacity="0.88"/><stop offset="1" stop-color="#ccc"/></linearGradient><linearGradient id="Dégradé_sans_nom_170" x1="502.34" y1="274.76" x2="576" y2="274.76" gradientUnits="userSpaceOnUse"><stop offset="0" stop-color="#ccc"/><stop offset="0.04" stop-color="#ccc" stop-opacity="0.95"/><stop offset="0.52" stop-color="#ccc" stop-opacity="0.44"/><stop offset="0.85" stop-color="#ccc" stop-opacity="0.12"/><stop offset="1" stop-color="#ccc" stop-opacity="0"/></linearGradient><linearGradient id="Dégradé_sans_nom_173" x1="575.5" y1="272.94" x2="648.72" y2="272.94" xlink:href="#Dégradé_sans_nom_175"/></defs><path class="cls-1" d="M576,180s0,63-72,72S387,360,387,360" transform="translate(-363.55 -123.9)"/><path class="cls-2" d="M576,179.79s0,63,72,72,117,108,117,108" transform="translate(-363.55 -123.9)"/><path class="cls-3" d="M365.06,360.3a2.67,2.67,0,0,0-1.35,1.36c-.16.33-.16,1.47-.16,18.47,0,17.6,0,18.13.18,18.58a2.78,2.78,0,0,0,1.44,1.46l.5.2,15.47.05,15.46,0-.08-.2a2.84,2.84,0,0,1,.12-1.74l.2-.32-.27-.21a2,2,0,0,1-.43-.49l-.17-.27h-29.1V369.53h39.55l.05,9.06,0,9,.37.09a2.94,2.94,0,0,1,1.31,1.08c0,.11.1.11.36,0a2.37,2.37,0,0,1,.73-.12h.41l.05-13.4V361.92l-.35-.52a3.16,3.16,0,0,0-1.59-1.29c-.26-.08-6-.1-21.26-.1h-20.9Zm31.18,3.28c.54.22.64.45.64,1.47,0,.75,0,.93-.19,1.13a1.78,1.78,0,0,1-1.57.42c-.6,0-.72-.08-1-.34s-.3-.31-.3-1.17.11-1.27.57-1.49A3.29,3.29,0,0,1,396.24,363.58Zm5.1.21c.26.25.3.36.35,1,.09,1.27-.27,1.77-1.37,1.83a1.74,1.74,0,0,1-1.51-.42c-.16-.2-.19-.38-.19-1.15s0-.93.24-1.19.46-.38,1.42-.36C401,363.5,401.06,363.52,401.34,363.79Zm4.49-.21c.46.19.63.56.63,1.39,0,1.22-.26,1.55-1.3,1.62-1.37.12-1.8-.26-1.8-1.53,0-.91.16-1.28.61-1.47A3.56,3.56,0,0,1,405.83,363.58Z" transform="translate(-363.55 -123.9)"/><path class="cls-3" d="M388.5,373a1.72,1.72,0,0,0-.59.44c-.28.39-5.16,15-5.16,15.47a1.49,1.49,0,0,0,2.61.79c.25-.35,5.16-15.08,5.16-15.5a1.33,1.33,0,0,0-.8-1.17A1.11,1.11,0,0,0,388.5,373Z" transform="translate(-363.55 -123.9)"/><path class="cls-3" d="M378.64,377.9l-4,1.78a5.14,5.14,0,0,0-1.73,1,1.44,1.44,0,0,0,.26,2c.14.09,2,.94,4.1,1.89,4.21,1.88,4.36,1.93,5,1.51a1.55,1.55,0,0,0,.68-1.13,2,2,0,0,0-.21-.68c-.19-.39-.27-.44-1.67-1.09l-2.5-1.13a5.66,5.66,0,0,1-1-.51s1-.48,2.2-1,2.34-1.05,2.52-1.15a1.59,1.59,0,0,0,.69-1.16,1.72,1.72,0,0,0-.77-1.26C381.56,376.64,381.31,376.7,378.64,377.9Z" transform="translate(-363.55 -123.9)"/><path class="cls-3" d="M391.22,376.88a1.36,1.36,0,0,0-.41,2.29,25.27,25.27,0,0,0,2.61,1.29c1.26.57,2.3,1.05,2.3,1.08s-1.07.52-2.36,1.1a18.13,18.13,0,0,0-2.62,1.3,1.38,1.38,0,0,0,1.06,2.34,28.84,28.84,0,0,0,4.24-1.73c2.14-1,4-1.83,4.11-1.94a1.41,1.41,0,0,0-.11-2.25c-.12-.07-1.92-.9-4-1.83C392.21,376.81,391.67,376.63,391.22,376.88Z" transform="translate(-363.55 -123.9)"/><path class="cls-3" d="M404.16,389.42c-.17.14-.2.29-.22,1l0,.82-.48.17-.64.23c-.11.05-.29-.09-.67-.52-.65-.76-.78-.82-1.19-.54-.74.53-1.42,1.15-1.42,1.33a2.12,2.12,0,0,0,.47.71,7.39,7.39,0,0,1,.53.63,2.29,2.29,0,0,1-.8,1.24l-.78-.12c-.73-.14-.93-.11-1,.1a11.11,11.11,0,0,0-.33,1.86c0,.36.09.41,1.14.58.59.1.7.14.73.31s.09.41.14.67.07.49,0,.53l-.75.42c-.82.47-.84.6-.19,1.65a3.35,3.35,0,0,0,.65.87c.15,0,.43-.07,1.24-.52l.48-.27.53.45.52.46-.28.79c-.22.61-.26.83-.18.95a4,4,0,0,0,1.08.49c.77.26,1,.31,1.16.23a2.68,2.68,0,0,0,.45-.87l.28-.76.72,0,.72,0,.3.8c.25.64.35.8.53.82a8.25,8.25,0,0,0,2-.67c.17-.13.14-.41-.14-1.16l-.26-.67.38-.33c.69-.58.7-.58,1.47-.15a3.38,3.38,0,0,0,.82.38c.2,0,.37-.21.9-1.09s.54-.93-.38-1.47c-.34-.2-.65-.4-.69-.43a2.41,2.41,0,0,1,.06-.71l.11-.67.69-.1c1.29-.19,1.28-.19,1-1.46a5.61,5.61,0,0,0-.25-1.05c-.08-.12-.7-.1-1.6.05-.35.06-.35.06-.69-.53l-.34-.59.51-.61a2.4,2.4,0,0,0,.53-.81c0-.15-.24-.4-.8-.87a4.08,4.08,0,0,0-1-.65,6.54,6.54,0,0,0-1.29,1.29l-.7-.23-.7-.25v-.87c0-1.06,0-1.06-1.28-1.06C404.55,389.26,404.33,389.3,404.16,389.42Zm2.06,5.14a2.29,2.29,0,0,1,1.4,2.09,2,2,0,0,1-.58,1.5,2.41,2.41,0,0,1-3.84-.38,2.34,2.34,0,0,1-.05-2.14,2.68,2.68,0,0,1,1.29-1.11A2.92,2.92,0,0,1,406.22,394.56Z" transform="translate(-363.55 -123.9)"/><path class="cls-3" d="M654.32,390.48H636.54V364.57h18.29v2h2v-2.36c.12-2.33-4.12-4.24-4.12-4.24h-14.5a4.26,4.26,0,0,0-4.24,4.24v30.63a4.26,4.26,0,0,0,4.24,4.24h14.37a4.26,4.26,0,0,0,4.25-4.24v-4.39Zm-8.83,6.29a1.95,1.95,0,1,1,1.94-1.95A1.94,1.94,0,0,1,645.49,396.77Z" transform="translate(-363.55 -123.9)"/><rect class="cls-3" x="275.03" y="243.21" width="5.59" height="3.56"/><rect class="cls-3" x="275.03" y="251.85" width="5.59" height="3.56"/><rect class="cls-3" x="275.03" y="260.48" width="5.59" height="3.56"/><path class="cls-3" d="M663.23,377.27a8.31,8.31,0,0,0-1.13-3l1.95-2.11-2-2.15-1.95,2.11a7,7,0,0,0-2.74-1.22v-2.29h-3v2.77a8.26,8.26,0,0,0-3,1.13l-2.11-1.95-2.15,2,2.11,1.95a7.12,7.12,0,0,0-1.23,2.75h-2.29v3.05h2.76a8.73,8.73,0,0,0,1.13,3l-1.94,2.11,2,2.14,2-2.1a7.14,7.14,0,0,0,2.75,1.23V389h3v-2.76a8.41,8.41,0,0,0,3-1.13l2.1,1.95,2.15-2-2.1-1.95a7.26,7.26,0,0,0,1.22-2.75H666v-3.05ZM656,381.79a3.07,3.07,0,1,1,3.06-3.06A3.06,3.06,0,0,1,656,381.79Z" transform="translate(-363.55 -123.9)"/><path class="cls-4" d="M481.31,360H527a1.32,1.32,0,0,1,1.32,1.31v30.22a1.32,1.32,0,0,1-1.32,1.31H481.31a1.33,1.33,0,0,1-1.31-1.32V361.3A1.31,1.31,0,0,1,481.31,360Zm4.06,9h3.29a.3.3,0,0,1,.3.31h0v1.18a.31.31,0,0,1-.3.3H485s-.3,0-.19-.16v-1.15c-.11-.16,0-.29.59-.29Zm-.3,9.55H497a.29.29,0,0,1,.3.3V380a.29.29,0,0,1-.29.3H485.08a.3.3,0,0,1-.3-.3v-1.2A.29.29,0,0,1,485.07,378.51Zm-.29-4.48a.3.3,0,0,1,.3-.3h7.17a.3.3,0,0,1,.29.31v1.18a.31.31,0,0,1-.29.3h-7.17a.29.29,0,0,1-.3-.3Zm0,10.15a.29.29,0,0,1,.3-.3H501.8a.3.3,0,0,1,.29.31v1.18a.29.29,0,0,1-.29.3H485.08a.29.29,0,0,1-.3-.3Zm13.43,10.45h11.94a6.12,6.12,0,0,0,3.19,5.37H495C496.87,398.66,498.21,397,498.21,394.63Zm28.36-30.45v23.89a1.18,1.18,0,0,1-1.18,1.18H483a1.18,1.18,0,0,1-1.16-1.18V364.78h10.75v1.57a.78.78,0,0,0,.75.81h1.16a6.68,6.68,0,0,0,.53,1.58l-.88.95a.86.86,0,0,0,0,1.14l1.1,1.19a.72.72,0,0,0,1.06,0l.81-.88a5.61,5.61,0,0,0,1.44.69v.52a.78.78,0,0,0,.78.78h1.42a.78.78,0,0,0,.78-.78v-1.11a5.64,5.64,0,0,0,1.43-.55l.86.89a.74.74,0,0,0,1,0l1.07-1.11a.77.77,0,0,0,0-1.06l-.79-.81a6.17,6.17,0,0,0,.63-1.44h2.15a.79.79,0,0,0,.79-.78v-1.86a.8.8,0,0,0-.07-.34Zm-5.09,6.25,1.27,1.22a.86.86,0,0,1,0,1.24l-1,1a6.3,6.3,0,0,1,.65,1.65h1a.87.87,0,0,1,.84.88v1.83a.86.86,0,0,1-.84.87h-1.42a7.18,7.18,0,0,1-.73,1.68l.92,1a.91.91,0,0,1,0,1.23l-1.24,1.28a.82.82,0,0,1-1.19,0l-1-1a6.81,6.81,0,0,1-1.67.65v1a.86.86,0,0,1-.87.84h-1.83a.87.87,0,0,1-.88-.84v-1.41a6.75,6.75,0,0,1-1.67-.74l-1,.94a.86.86,0,0,1-1.2,0l-1.28-1.24a.85.85,0,0,1,0-1.24l1-1a6.86,6.86,0,0,1-.64-1.66h-1a.85.85,0,0,1-.84-.87v-1.85a.86.86,0,0,1,.86-.86h1.39a6.75,6.75,0,0,1,.74-1.67l-.94-1a.85.85,0,0,1,0-1.18l0,0,1.24-1.29a.82.82,0,0,1,1.19,0l1,1a6.34,6.34,0,0,1,1.66-.64v-1a.86.86,0,0,1,.88-.84h1.83a.86.86,0,0,1,.87.84v1.42a7.18,7.18,0,0,1,1.68.73l1-.92a.92.92,0,0,1,1.24,0Zm-18-5.65a3.19,3.19,0,0,1-2.76,4.1,3.14,3.14,0,0,1-2.58-.94,3.22,3.22,0,0,1-.78-3.16Zm12.13,8.62a3.55,3.55,0,1,1-3.54,3.55h0A3.55,3.55,0,0,1,515.6,373.4Zm9.18-11.46a.79.79,0,1,1-.78.78A.78.78,0,0,1,524.78,361.94Zm-5.28,0a.79.79,0,1,1-.79.78A.78.78,0,0,1,519.5,361.94Zm2.64,0a.79.79,0,1,1-.79.78A.79.79,0,0,1,522.14,361.94Z" transform="translate(-363.55 -123.9)"/><path class="cls-5" d="M771.68,392.87a1.22,1.22,0,0,0-.92,0,1.19,1.19,0,0,0-.38.25h0a1,1,0,0,0-.16.2l-.07.13h-1.91V391.8a3.74,3.74,0,0,1-.91.3l-.16,0V394a.51.51,0,0,0,.16.38.53.53,0,0,0,.38.16h2.46l.06.11a1.19,1.19,0,0,0,.15.18h0a1.07,1.07,0,0,0,.39.26,1.14,1.14,0,0,0,.46.09,1.17,1.17,0,0,0,.45-.09h0a1.2,1.2,0,0,0,.65-.65,1.23,1.23,0,0,0,.1-.46,1.19,1.19,0,0,0-.1-.46,1.2,1.2,0,0,0-.26-.4,1.3,1.3,0,0,0-.39-.25Zm-9-12.25h-2.28l-.32,1.07h-2.3l2.62-7h2.35l2.61,7H763l-.32-1.07Zm-.39-1.61-.75-2.45-.75,2.45Zm3.83-4.28h2.14v7h-2.14v-7Zm-1.89-6.45a3.53,3.53,0,0,0-.92,1,.12.12,0,0,1,0,.05.19.19,0,0,1-.25-.05,3.65,3.65,0,0,0-.91-1,3,3,0,0,0-1.15-.51h0a3.07,3.07,0,0,0-1.17,0,3.53,3.53,0,0,0-1.15.42,3.68,3.68,0,0,0-.93.78,3.24,3.24,0,0,0-.6,1h0l-.06.18c0,.05,0,.12,0,.18a.18.18,0,0,1-.17.14,3.52,3.52,0,0,0-1.22.44,4,4,0,0,0-1.06.93,4.75,4.75,0,0,0-.76,1.32,5,5,0,0,0-.3,1.52v.41a.19.19,0,0,1-.07.16,5.82,5.82,0,0,0-.69.57,5.2,5.2,0,0,0-.55.62,3.8,3.8,0,0,0-.57,1.09,3.64,3.64,0,0,0-.21,1.16,4,4,0,0,0,.15,1.1,4.32,4.32,0,0,0,.48,1.05h0a5,5,0,0,0,.39.55,5.75,5.75,0,0,0,.49.5.16.16,0,0,1,0,.17,4.17,4.17,0,0,0-.08.69,4.05,4.05,0,0,0,0,.7,4.34,4.34,0,0,0,.35,1.18,4.39,4.39,0,0,0,.69,1.06,4.7,4.7,0,0,0,.88.79,4.34,4.34,0,0,0,1,.52l.48.13a3.59,3.59,0,0,0,.46.05.18.18,0,0,1,.18.14,3,3,0,0,0,.44,1,3.4,3.4,0,0,0,.79.86,3.54,3.54,0,0,0,1.33.66,3.19,3.19,0,0,0,1.41,0,3,3,0,0,0,1.21-.56,3.55,3.55,0,0,0,.94-1.07.16.16,0,0,1,.07-.07.18.18,0,0,1,.24.08,3.56,3.56,0,0,0,.8,1,2.8,2.8,0,0,0,1.07.55,3.13,3.13,0,0,0,1.49,0,3.87,3.87,0,0,0,1.48-.66,3.76,3.76,0,0,0,.89-.89,3.18,3.18,0,0,0,.5-1.05.16.16,0,0,1,.14-.14,3.38,3.38,0,0,0,1.32-.55,4.38,4.38,0,0,0,1.09-1.1,4.63,4.63,0,0,0,.66-1.4,5.19,5.19,0,0,0,.18-1.55.17.17,0,0,1,.08-.16,7.07,7.07,0,0,0,.71-.57,4.21,4.21,0,0,0,.56-.64h0a4,4,0,0,0,.56-1,3.69,3.69,0,0,0,.21-1.12,3.56,3.56,0,0,0-.13-1.08,4,4,0,0,0-.42-1h0a4.3,4.3,0,0,0-.43-.62,4.73,4.73,0,0,0-.54-.56.19.19,0,0,1-.06-.18,4.52,4.52,0,0,0,.08-.63,4.42,4.42,0,0,0,0-.63,3.87,3.87,0,0,0-.33-1.22,4.24,4.24,0,0,0-.68-1.1,4.75,4.75,0,0,0-.91-.83,4.2,4.2,0,0,0-1-.53h0a4,4,0,0,0-.57-.14h0a2.55,2.55,0,0,0-.55,0,.18.18,0,0,1-.19-.14,2.29,2.29,0,0,0-.12-.37,3,3,0,0,0-.17-.37,3.74,3.74,0,0,0-.64-.84,4.23,4.23,0,0,0-.89-.63,3.51,3.51,0,0,0-1.07-.33,3,3,0,0,0-1.07,0,3.13,3.13,0,0,0-1.15.52Zm5.28,3.44a.2.2,0,0,1,.17-.13,1.91,1.91,0,0,1,.41,0,2.47,2.47,0,0,1,.43.11,3.39,3.39,0,0,1,.78.4,3.69,3.69,0,0,1,.68.63h0a3.28,3.28,0,0,1,.52.84,3.07,3.07,0,0,1,.25.91,3,3,0,0,1,0,.67,2.94,2.94,0,0,1-.14.64v0a.64.64,0,0,0,.25.73h0a3.49,3.49,0,0,1,.6.54,4,4,0,0,1,.47.64,3.08,3.08,0,0,1,.32.75,2.6,2.6,0,0,1,.09.78,2.76,2.76,0,0,1-.15.79,2.82,2.82,0,0,1-.4.74h0a3.57,3.57,0,0,1-.6.64,4.89,4.89,0,0,1-.78.56h0a.57.57,0,0,0-.26.29.62.62,0,0,0,0,.38v0a4,4,0,0,1-.07,1.4,3.69,3.69,0,0,1-.55,1.26,3.32,3.32,0,0,1-.64.7,2.33,2.33,0,0,1-.77.42h0s-.21-.15-.24-.25a3.24,3.24,0,0,0-2.06-2.13h0a.61.61,0,0,0-.46,0,.54.54,0,0,0-.34.29v0a.59.59,0,0,0,0,.45.62.62,0,0,0,.3.36c.89.45,1.55.8,1.54,1.91a1.88,1.88,0,0,1-.28.95,2.92,2.92,0,0,1-.76.81,2.83,2.83,0,0,1-1,.47,2.11,2.11,0,0,1-1,0,1.86,1.86,0,0,1-1.17-1A4.89,4.89,0,0,1,764,387a.11.11,0,0,1,0-.05.49.49,0,0,0-.41-.45,1,1,0,0,0-.33-.05,1.13,1.13,0,0,0-.32.05c-.24.07-.42.22-.42.45v0a4.62,4.62,0,0,1-.75,1.65,2.09,2.09,0,0,1-1.22.79,2,2,0,0,1-.95,0,2.59,2.59,0,0,1-.91-.45,2.39,2.39,0,0,1-.64-.75,1.88,1.88,0,0,1-.24-.89c0-1.18.71-1.57,1.65-2.06a.58.58,0,0,0,.3-.35.61.61,0,0,0,0-.46.62.62,0,0,0-.36-.3.59.59,0,0,0-.45,0h0a3.48,3.48,0,0,0-2.17,2.21.2.2,0,0,1-.19.14,1.24,1.24,0,0,1-.33,0,1.68,1.68,0,0,1-.32-.09,3.1,3.1,0,0,1-.77-.39,3.79,3.79,0,0,1-.67-.6,3.55,3.55,0,0,1-.52-.8,1.5,1.5,0,0,1-.17-.88h0a1.18,1.18,0,0,1-.11-.71,3,3,0,0,1,.15-.69h0a.68.68,0,0,0,0-.4h0a.73.73,0,0,0-.25-.33h0a3.9,3.9,0,0,1-.56-.5,3.41,3.41,0,0,1-.44-.58,2.86,2.86,0,0,1-.34-.76,2.42,2.42,0,0,1-.11-.8,2.47,2.47,0,0,1,.15-.83,3.26,3.26,0,0,1,.41-.78,3.81,3.81,0,0,1,.59-.63,4.53,4.53,0,0,1,.76-.56.66.66,0,0,0,.24-.26h0a.7.7,0,0,0,.06-.35l0,0v.07a2,2,0,0,1,0-.34c0-.12,0-.24,0-.36a4.05,4.05,0,0,1,.23-1.18,3.44,3.44,0,0,1,.58-1,2.9,2.9,0,0,1,.66-.61,2.47,2.47,0,0,1,.74-.34h0a.19.19,0,0,1,.23.13,3.12,3.12,0,0,0,.93,1.48l0,0a.64.64,0,0,0,.43.16.61.61,0,0,0,.41-.19h0a.6.6,0,0,0,.15-.43.61.61,0,0,0-.19-.43,1.76,1.76,0,0,1-.59-.94,1.82,1.82,0,0,1,0-1.2,2.21,2.21,0,0,1,.41-.69A2.65,2.65,0,0,1,759,369h0a2.53,2.53,0,0,1,.79-.3,1.91,1.91,0,0,1,.79,0,1.94,1.94,0,0,1,1.05.61,3.53,3.53,0,0,1,.72,1.24h0a.66.66,0,0,0,.55.38,1.45,1.45,0,0,0,.36,0h0a1.35,1.35,0,0,0,.35-.06c.19-.07.35-.17.38-.3v-.08a1.7,1.7,0,0,1,.53-1.1,2.44,2.44,0,0,1,1.16-.72,2.18,2.18,0,0,1,.72,0,2.68,2.68,0,0,1,.71.23h0a2.5,2.5,0,0,1,1.07,1,1.86,1.86,0,0,1,.21,1.15,1.53,1.53,0,0,1-.36.95h0a.65.65,0,0,0-.14.44.62.62,0,0,0,.2.4l0,0a.64.64,0,0,0,.44.13.57.57,0,0,0,.39-.2l0,0a2.74,2.74,0,0,0,.55-1.12Zm7.26,15.55a1.09,1.09,0,0,1,0-.91A1,1,0,0,1,777,386h0a1,1,0,0,1,.2-.16l.13-.07v-1.91H775c0-.13,0-.25,0-.38a.21.21,0,0,1,.09-.18,5.76,5.76,0,0,0,.66-.51h2.14a.55.55,0,0,1,.38.15.53.53,0,0,1,.16.38v2.46l.11.07.18.14h0a1.16,1.16,0,0,1,.26.39,1.18,1.18,0,0,1,.09.46,1.13,1.13,0,0,1-.09.45h0a1.16,1.16,0,0,1-.26.39,1.27,1.27,0,0,1-.39.26,1.22,1.22,0,0,1-.46.09,1.23,1.23,0,0,1-.47-.09,1.27,1.27,0,0,1-.39-.26,1.36,1.36,0,0,1-.25-.4Zm3.48-6.12H777a3.84,3.84,0,0,0,.14-.36,3,3,0,0,0,.18-.71h2.87l.06-.12a1,1,0,0,1,.16-.19,1.16,1.16,0,0,1,.39-.26,1.18,1.18,0,0,1,.46-.09,1.33,1.33,0,0,1,.45.08h0a1.2,1.2,0,0,1,.65.65,1.14,1.14,0,0,1,.09.46,1.22,1.22,0,0,1-.09.46,1.27,1.27,0,0,1-.26.39,1.16,1.16,0,0,1-.39.26,1.39,1.39,0,0,1-.46.09,1.13,1.13,0,0,1-.45-.09h0a1.16,1.16,0,0,1-.39-.26.9.9,0,0,1-.15-.19h0l-.06-.12Zm.85-3.21h-4a4.49,4.49,0,0,0-.43-1h0l0-.08h4v-3.49l-.09-.06-.17-.14a1.33,1.33,0,0,1-.26-.39,1.34,1.34,0,0,1-.09-.46,1.39,1.39,0,0,1,.09-.46,1.33,1.33,0,0,1,.26-.39,1.27,1.27,0,0,1,.39-.26,1.22,1.22,0,0,1,.46-.09,1.18,1.18,0,0,1,.46.09,1.2,1.2,0,0,1,.65.65,1.18,1.18,0,0,1,.09.46,1.33,1.33,0,0,1-.08.45h0a1.16,1.16,0,0,1-.26.39,1,1,0,0,1-.22.18l-.15.08v4a.55.55,0,0,1-.54.54Zm-4.28-2.68h-1.36a3.8,3.8,0,0,0,.06-.59,3.84,3.84,0,0,0,0-.48h.77v-1.57l-.12-.07a1.06,1.06,0,0,1-.2-.17h0a1.16,1.16,0,0,1-.26-.39,1.13,1.13,0,0,1-.09-.45,1.18,1.18,0,0,1,.09-.46,1.19,1.19,0,0,1,.25-.38h0a1.07,1.07,0,0,1,.39-.26,1.14,1.14,0,0,1,.46-.09,1.22,1.22,0,0,1,.46.09,1.19,1.19,0,0,1,.38.25h0a1.25,1.25,0,0,1,.25.38h0a1.34,1.34,0,0,1,.09.46,1.45,1.45,0,0,1-.09.46,1.42,1.42,0,0,1-.26.38h0a1.49,1.49,0,0,1-.2.15.41.41,0,0,1-.11.07v2.12a.53.53,0,0,1-.16.38.55.55,0,0,1-.38.15Zm-22.17-10.11a1.14,1.14,0,0,0,.46.09,1.22,1.22,0,0,0,.46-.09,1.05,1.05,0,0,0,.37-.25h0a1.63,1.63,0,0,0,.17-.2l.07-.13h1.9v1.65a3.8,3.8,0,0,1,1.07-.38V364a.55.55,0,0,0-.15-.38.53.53,0,0,0-.38-.16h-2.46l-.07-.11-.14-.18h0a1.56,1.56,0,0,0-.39-.26,1.39,1.39,0,0,0-.46-.09,1.13,1.13,0,0,0-.45.09h0a1.56,1.56,0,0,0-.39.26,1.27,1.27,0,0,0-.26.39,1.22,1.22,0,0,0-.09.46,1.18,1.18,0,0,0,.09.46,1.07,1.07,0,0,0,.26.39,1.31,1.31,0,0,0,.4.26Zm6.12-3.43v4.13a3.42,3.42,0,0,1,1,.51l0,0v-4.66l.12-.06a1,1,0,0,0,.19-.16,1.16,1.16,0,0,0,.26-.39,1.19,1.19,0,0,0,.1-.46,1.34,1.34,0,0,0-.09-.45h0a1.16,1.16,0,0,0-.26-.39,1.07,1.07,0,0,0-.39-.26,1.14,1.14,0,0,0-.46-.09,1.13,1.13,0,0,0-.45.09,1.07,1.07,0,0,0-.39.26,1.16,1.16,0,0,0-.26.39,1.19,1.19,0,0,0-.1.46,1.13,1.13,0,0,0,.09.45h0a1.16,1.16,0,0,0,.26.39,1,1,0,0,0,.19.16h0l.12.06Zm3.21-.9v6a3.28,3.28,0,0,1,.46-.39,2.67,2.67,0,0,1,.61-.35v-4.77h3.49l.06.09a1.18,1.18,0,0,0,.53.43,1.22,1.22,0,0,0,.92,0,1.2,1.2,0,0,0,.65-.65,1.22,1.22,0,0,0,0-.92,1.16,1.16,0,0,0-.26-.39,1.31,1.31,0,0,0-.4-.26,1.13,1.13,0,0,0-.45-.09,1.33,1.33,0,0,0-.45.08h0a1.16,1.16,0,0,0-.39.26,1,1,0,0,0-.18.22,1.09,1.09,0,0,0-.08.15h-4a.51.51,0,0,0-.38.16.53.53,0,0,0-.16.38Zm2.68,4.27v.83l.33,0a3.2,3.2,0,0,1,.74.18v-.51h1.58l.06.12a1.12,1.12,0,0,0,.17.21h0a1.56,1.56,0,0,0,.39.26,1.34,1.34,0,0,0,.45.09,1.39,1.39,0,0,0,.46-.09,1.33,1.33,0,0,0,.39-.26h0a1.27,1.27,0,0,0,.26-.39,1.22,1.22,0,0,0,.09-.46,1.14,1.14,0,0,0-.09-.46,1,1,0,0,0-.25-.38h0a1,1,0,0,0-.38-.26h0a1.14,1.14,0,0,0-.46-.09,1.22,1.22,0,0,0-.46.09,1.19,1.19,0,0,0-.38.25h0a1.57,1.57,0,0,0-.15.19l-.07.11h-2.12a.53.53,0,0,0-.38.16.54.54,0,0,0-.15.37Zm-16.53,5.35a1.52,1.52,0,0,1,.09.49,1.58,1.58,0,0,1-.09.49,1.2,1.2,0,0,1-.26.4h0a1.68,1.68,0,0,1-.21.18l-.13.07v2.11h2.14v.1a1.62,1.62,0,0,0,0,.22.21.21,0,0,1-.09.18,7.92,7.92,0,0,0-.76.57H749a.53.53,0,0,1-.38-.16.6.6,0,0,1-.16-.41v-2.63l-.11-.07a1.19,1.19,0,0,1-.18-.15h0a1.35,1.35,0,0,1-.26-1.39h0a1.19,1.19,0,0,1,.65-.69,1.07,1.07,0,0,1,.47-.1,1.06,1.06,0,0,1,.46.1,1.19,1.19,0,0,1,.39.27,1.7,1.7,0,0,1,.26.43Zm-3.5,7h2.85a3.24,3.24,0,0,0-.13.33,4.7,4.7,0,0,0-.18.74H746.6l-.07.11a1,1,0,0,1-.15.2,1.4,1.4,0,0,1-.39.26,1.23,1.23,0,0,1-.47.09,1.42,1.42,0,0,1-.45-.08h0a1.27,1.27,0,0,1-.39-.26,1.16,1.16,0,0,1-.26-.39,1.22,1.22,0,0,1,0-.92,1.16,1.16,0,0,1,.26-.39,1.27,1.27,0,0,1,.39-.26,1.22,1.22,0,0,1,.46-.09,1.44,1.44,0,0,1,.46.08h0a1.4,1.4,0,0,1,.39.26,1,1,0,0,1,.15.19h0l.06.12Zm-.84,2.67h3.78a4.45,4.45,0,0,0,.5,1.06h-3.75v3.49l.09.06.17.14a1.16,1.16,0,0,1,.26.39,1.22,1.22,0,0,1,0,.92,1.16,1.16,0,0,1-.26.39,1.27,1.27,0,0,1-.39.26,1.22,1.22,0,0,1-.46.09,1.18,1.18,0,0,1-.46-.09,1.16,1.16,0,0,1-.39-.26,1.31,1.31,0,0,1-.26-.4,1.14,1.14,0,0,1-.09-.46,1.42,1.42,0,0,1,.08-.45h0a1.4,1.4,0,0,1,.26-.39,1.28,1.28,0,0,1,.22-.17l.15-.08v-4a.51.51,0,0,1,.16-.37.53.53,0,0,1,.38-.16Zm4.28,3.21h1a4,4,0,0,0,0,.59,2.53,2.53,0,0,0,0,.48h-.42v1.58l.12.07a1.56,1.56,0,0,1,.2.16h0a1.27,1.27,0,0,1,.26.39,1.23,1.23,0,0,1,.1.46,1.15,1.15,0,0,1-.1.46,1,1,0,0,1-.25.38h0a1.07,1.07,0,0,1-.39.26,1.13,1.13,0,0,1-.45.09,1.24,1.24,0,0,1-.85-.34h0a1.12,1.12,0,0,1-.26-.38h0a1.15,1.15,0,0,1-.1-.46,1.23,1.23,0,0,1,.1-.46,1.19,1.19,0,0,1,.25-.38h0a1.57,1.57,0,0,1,.19-.15l.11-.07v-2.12a.53.53,0,0,1,.16-.38.51.51,0,0,1,.38-.16Zm15.52,13.11v-4.24a3.2,3.2,0,0,1-1.07-.58h0v4.83l-.12.07a.78.78,0,0,0-.2.16,1.16,1.16,0,0,0-.26.39,1.14,1.14,0,0,0-.09.46,1.13,1.13,0,0,0,.09.45h0a1.2,1.2,0,0,0,.65.65,1.22,1.22,0,0,0,.92,0,1.07,1.07,0,0,0,.39-.26,1.36,1.36,0,0,0,.27-.39,1.39,1.39,0,0,0,.09-.46,1.13,1.13,0,0,0-.09-.45h0a1.36,1.36,0,0,0-.27-.39,1,1,0,0,0-.19-.16h0l-.11-.07Zm-3.21,1.34v-6.1a3.23,3.23,0,0,1-.4.35,3.91,3.91,0,0,1-.68.4v4.82h-3.49l0-.09c-.05-.06-.09-.12-.14-.17a1.27,1.27,0,0,0-.39-.26,1.22,1.22,0,0,0-.46-.09,1.18,1.18,0,0,0-.46.09,1.2,1.2,0,0,0-.65.65,1.18,1.18,0,0,0-.09.46,1.22,1.22,0,0,0,.09.46,1.2,1.2,0,0,0,.65.65,1.14,1.14,0,0,0,.46.09,1.2,1.2,0,0,0,.45-.09h0a1.4,1.4,0,0,0,.39-.26,2,2,0,0,0,.17-.23.64.64,0,0,0,.08-.14h4a.49.49,0,0,0,.37-.16.56.56,0,0,0,.17-.38Zm-2.68-4.82V392a4.07,4.07,0,0,1-.7-.1,2.29,2.29,0,0,1-.37-.12v.57H757a.75.75,0,0,0-.07-.12,1,1,0,0,0-.16-.2h0a1.16,1.16,0,0,0-.39-.26,1.19,1.19,0,0,0-.46-.1,1.23,1.23,0,0,0-.46.1,1.19,1.19,0,0,0-.38.25h0a1.27,1.27,0,0,0-.26.39,1.22,1.22,0,0,0-.09.46,1.15,1.15,0,0,0,.35.85h0a1.19,1.19,0,0,0,.38.25h0a1.22,1.22,0,0,0,.92,0,1.39,1.39,0,0,0,.38-.25h0a1.08,1.08,0,0,0,.16-.2l.06-.11h2.12a.55.55,0,0,0,.54-.54Z" transform="translate(-363.55 -123.9)"/><text class="cls-6" transform="translate(140.45 56.1)">CODZ</text><path class="cls-7" d="M576,180" transform="translate(-363.55 -123.9)"/><path class="cls-8" d="M575.5,189a117.69,117.69,0,0,1-9,40.35c-14.85,34.75-39.23,40-54,70.62-5.85,12.14-11.65,31.29-9,60.53" transform="translate(-363.55 -123.9)"/><path class="cls-9" d="M576,186a121.44,121.44,0,0,0,9,40.91c14.76,35.22,39,40.52,53.67,71.58,5.81,12.31,11.58,31.73,9,61.36" transform="translate(-363.55 -123.9)"/><text class="cls-10" transform="translate(9.45 296.1)">Web</text><text class="cls-10" transform="translate(109.29 295.9)">Desktop</text><text class="cls-10" transform="translate(254.29 295.9)">Mobile</text><text class="cls-10" transform="translate(390.29 296.16)">AI</text></svg>